<?xml version="1.0" encoding="UTF-8"?>
<svg width="16px" height="16px"  class="icon" viewBox="0 0 16 16" version="1.1" xmlns="http://www.w3.org/2000/svg" xmlns:xlink="http://www.w3.org/1999/xlink">
    <!-- Generator: Sketch 52.2 (67145) - http://www.bohemiancoding.com/sketch -->
    <title>人车房综合查询</title>
    <desc>Created with Sketch.</desc>
    <!-- <g id="后台" stroke="none" stroke-width="1" fill="none" fill-rule="evenodd"> -->
        <g id="人车房综合查询">
            <path d="M15,7.99951255 C14.0877712,6.7853431 12.635599,6 11,6 C8.23857625,6 6,8.23857625 6,11 C6,12.1256059 6.37194482,13.1643395 6.99963381,14 L1,14 C0.44771525,14 6.76353751e-17,13.5522847 0,13 L0,1 C-6.76353751e-17,0.44771525 0.44771525,1.72408066e-13 1,1.72306613e-13 L14,1.72306613e-13 C14.5522847,1.7220516e-13 15,0.44771525 15,1 L15,7.99951255 Z M3.66666667,3.5 L2.5,3.5 C2.22385763,3.5 2,3.72385763 2,4 L2,5.33333333 L3.17124406,5.33333333 C3.21269776,5.7083292 3.53062053,6 3.91666667,6 C4.3027128,6 4.62063558,5.7083292 4.66208927,5.33333333 L7.0045774,5.33333333 C7.04603109,5.7083292 7.36395386,6 7.75,6 C8.13604614,6 8.45396891,5.7083292 8.4954226,5.33333333 L9.66666667,5.33333333 L9.66666667,4 C9.66666667,3.72385763 9.44280904,3.5 9.16666667,3.5 L9,3.5 L9,3 C9,2.44771525 8.55228475,2 8,2 L4.66666667,2 C4.11438192,2 3.66666667,2.44771525 3.66666667,3 L3.66666667,3.5 Z M3,12.696654 C3.25,12.696654 4,10.0842166 4,9.59053805 C4,9.09685954 3.55228475,8.69665404 3,8.69665404 C2.44771525,8.69665404 2,9.09685954 2,9.59053805 C2,10.0842166 2.75,12.696654 3,12.696654 Z M3,8.39330808 C3.38462688,8.39330808 3.69642857,8.08140544 3.69642857,7.69665404 C3.69642857,7.31190264 3.38462688,7 3,7 C2.61537312,7 2.30357143,7.31190264 2.30357143,7.69665404 C2.30357143,8.08140544 2.61537312,8.39330808 3,8.39330808 Z" id="合并形状"></path>
            <path d="M11,7 C13.209139,7 15,8.790861 15,11 C15,13.209139 13.209139,15 11,15 C8.790861,15 7,13.209139 7,11 C7,8.790861 8.790861,7 11,7 Z M11,8 C9.34314575,8 8,9.34314575 8,11 C8,12.6568542 9.34314575,14 11,14 C12.6568542,14 14,12.6568542 14,11 C14,9.34314575 12.6568542,8 11,8 Z" id="合并形状"></path>
            <rect id="矩形-copy-90" transform="translate(14.414214, 14.414214) rotate(45.000000) translate(-14.414214, -14.414214) " x="12.9142136" y="13.9142136" width="3" height="1" rx="0.5"></rect>
        </g>
    <!-- </g> -->
</svg>