<?xml version="1.0" encoding="UTF-8"?>
<svg width="16px" height="16px"  class="icon" viewBox="0 0 16 16" version="1.1" xmlns="http://www.w3.org/2000/svg" xmlns:xlink="http://www.w3.org/1999/xlink">
    <!-- Generator: Sketch 52.2 (67145) - http://www.bohemiancoding.com/sketch -->
    <title>基础配置</title>
    <desc>Created with Sketch.</desc>
    <!-- <g id="后台" stroke="none" stroke-width="1" fill="none" fill-rule="evenodd"> -->
        <g id="基础配置">
            <path d="M3,9 L1,9 C0.447,9 0,8.552 0,8 L0,6 C0,5.448 0.447,5 1,5 L3,5 C3.553,5 4,5.448 4,6 L4,8 C4,8.552 3.553,9 3,9" id="Fill-2"></path>
            <path d="M15,8 L13,8 C12.447,8 12,7.552 12,7 L12,5 C12,4.448 12.447,4 13,4 L15,4 C15.553,4 16,4.448 16,5 L16,7 C16,7.552 15.553,8 15,8" id="Fill-4"></path>
            <path d="M9,13 L7,13 C6.447,13 6,12.552 6,12 L6,10 C6,9.448 6.447,9 7,9 L9,9 C9.553,9 10,9.448 10,10 L10,12 C10,12.552 9.553,13 9,13" id="Fill-6"></path>
            <path d="M2,9 C1.447,9 1,8.552 1,8 L1,1 C1,0.448 1.447,0 2,0 C2.553,0 3,0.448 3,1 L3,8 C3,8.552 2.553,9 2,9" id="Fill-8"></path>
            <path d="M2,16 C1.447,16 1,15.552 1,15 L1,11 C1,10.448 1.447,10 2,10 C2.553,10 3,10.448 3,11 L3,15 C3,15.552 2.553,16 2,16" id="Fill-10"></path>
            <path d="M8,16 C7.447,16 7,15.552 7,15 L7,10 C7,9.448 7.447,9 8,9 C8.553,9 9,9.448 9,10 L9,15 C9,15.552 8.553,16 8,16" id="Fill-12"></path>
            <path d="M8,8 C7.447,8 7,7.552 7,7 L7,1 C7,0.448 7.447,0 8,0 C8.553,0 9,0.448 9,1 L9,7 C9,7.552 8.553,8 8,8" id="Fill-14"></path>
            <path d="M14,16 C13.447,16 13,15.552 13,15 L13,1 C13,0.448 13.447,0 14,0 C14.553,0 15,0.448 15,1 L15,15 C15,15.552 14.553,16 14,16" id="Fill-16"></path>
        </g>
    <!-- </g> -->
</svg>