<?xml version="1.0" encoding="UTF-8"?>
<svg width="16px" height="16px" class="icon" viewBox="0 0 16 16" version="1.1" xmlns="http://www.w3.org/2000/svg" xmlns:xlink="http://www.w3.org/1999/xlink">
    <!-- Generator: Sketch 52.2 (67145) - http://www.bohemiancoding.com/sketch -->
    <title>车行记录</title>
    <desc>Created with Sketch.</desc>
    <!-- <g id="后台" stroke="none" stroke-width="1" fill="none" fill-rule="evenodd"> -->
        <g id="车行记录">
            <path d="M2,12.6 L2,13 C2,13.5522847 1.55228475,14 1,14 C0.44771525,14 6.76353751e-17,13.5522847 0,13 L0,10 L0,6.6 L2.01154566,2.69092073 C2.23346334,2.25966341 2.61028972,2 3.01421741,2 L9.13373189,2 C9.55246481,2 9.94091555,2.27890186 10.1586839,2.7359003 L12,6.6 L12,10 L12,13 C12,13.5522847 11.5522847,14 11,14 C10.4477153,14 10,13.5522847 10,13 L10,12.6 L2,12.6 Z M2.00034955,10 C2.55203367,10 3,9.55216609 3,8.99970226 C3,8.44719782 2.55203367,8 2.00034955,8 C1.44800828,8 1,8.44719782 1,8.99970226 C1,9.55216609 1.44800828,10 2.00034955,10 Z M10.0003495,10 C10.5520337,10 11,9.55216609 11,8.99970226 C11,8.44719782 10.5520337,8 10.0003495,8 C9.44800828,8 9,8.44719782 9,8.99970226 C9,9.55216609 9.44800828,10 10.0003495,10 Z M8.72253026,3 L3.27026626,3 L2,5.4 L10,5.4 L8.72253026,3 Z" id="合并形状"></path>
            <rect id="矩形" x="13" y="3" width="2" height="1" rx="0.5"></rect>
            <rect id="矩形-copy-82" x="13" y="9" width="2" height="1" rx="0.5"></rect>
            <rect id="矩形-copy-80" x="13" y="6" width="3" height="1" rx="0.5"></rect>
            <rect id="矩形-copy-81" x="13" y="12" width="3" height="1" rx="0.5"></rect>
        </g>
    <!-- </g> -->
</svg>