<?xml version="1.0" encoding="UTF-8"?>
<svg width="16px" height="16px" class="icon" viewBox="0 0 16 16" version="1.1" xmlns="http://www.w3.org/2000/svg" xmlns:xlink="http://www.w3.org/1999/xlink">
  <title>车辆布控</title>
  <desc>Created with Sketch.</desc>
  <g id="车辆布控">
    <path d="M2,6.75 L4.01154566,3.56325059 C4.23346334,3.21168212 4.61028972,3 5.01421741,3 L11.1337319,3 C11.5524648,3 11.9409155,3.22736564 12.1586839,3.59991872 L14,6.75 L14,9.2 L14,11.8 C14,12.4627417 13.4627417,13 12.8,13 C12.1372583,13 11.6,12.4627417 11.6,11.8 L11.6,11.75 L4.4,11.75 L4.4,11.8 C4.4,12.4627417 3.8627417,13 3.2,13 C2.5372583,13 2,12.4627417 2,11.8 L2,9.2 L2,6.75 Z M3.86972656,6.75 L12.17854,6.75 L10.8517578,4.25 L5.18902724,4.25 L3.86972656,6.75 Z M4.20034955,10 C4.75203367,10 5.2,9.55216609 5.2,8.99970226 C5.2,8.44719782 4.75203367,8 4.20034955,8 C3.64800828,8 3.2,8.44719782 3.2,8.99970226 C3.2,9.55216609 3.64800828,10 4.20034955,10 Z M11.4003495,10 C11.9520337,10 12.4,9.55216609 12.4,8.99970226 C12.4,8.44719782 11.9520337,8 11.4003495,8 C10.8480083,8 10.4,8.44719782 10.4,8.99970226 C10.4,9.55216609 10.8480083,10 11.4003495,10 Z" id="合并形状"></path>
    <path d="M2,14 L3,14 C3.55228475,14 4,14.4477153 4,15 C4,15.5522847 3.55228475,16 3,16 L1,16 C0.44771525,16 6.76353751e-17,15.5522847 0,15 L0,13 C-6.76353751e-17,12.4477153 0.44771525,12 1,12 C1.55228475,12 2,12.4477153 2,13 L2,14 Z M15,16 L13,16 C12.4477153,16 12,15.5522847 12,15 C12,14.4477153 12.4477153,14 13,14 L14,14 L14,13 C14,12.4477153 14.4477153,12 15,12 C15.5522847,12 16,12.4477153 16,13 L16,15 C16,15.5522847 15.5522847,16 15,16 Z M15,0 C15.5522847,-1.01453063e-16 16,0.44771525 16,1 L16,3 C16,3.55228475 15.5522847,4 15,4 C14.4477153,4 14,3.55228475 14,3 L14,2 L13,2 C12.4477153,2 12,1.55228475 12,1 C12,0.44771525 12.4477153,1.01453063e-16 13,0 L15,0 Z M2,2 L2,3 C2,3.55228475 1.55228475,4 1,4 C0.44771525,4 6.76353751e-17,3.55228475 0,3 L0,1 C-6.76353751e-17,0.44771525 0.44771525,1.01453063e-16 1,0 L3,0 C3.55228475,-1.01453063e-16 4,0.44771525 4,1 C4,1.55228475 3.55228475,2 3,2 L2,2 Z" id="合并形状"></path>
  </g>
</svg>