<?xml version="1.0" encoding="UTF-8"?>
<svg width="16px" height="16px" viewBox="0 0 16 16" version="1.1" xmlns="http://www.w3.org/2000/svg" xmlns:xlink="http://www.w3.org/1999/xlink">
    <!-- Generator: Sketch 52.2 (67145) - http://www.bohemiancoding.com/sketch -->
    <title>车辆大数据视窗</title>
    <desc>Created with Sketch.</desc>
    <!-- <g id="后台" stroke="none" stroke-width="1" fill="none" fill-rule="evenodd"> -->
        <g id="车辆大数据视窗">
            <path d="M15,4 L1,4 L1,2 C1,1.44771525 1.44771525,1 2,1 L14,1 C14.5522847,1 15,1.44771525 15,2 L15,4 Z M15,5 L15,14 C15,14.5522847 14.5522847,15 14,15 L2,15 C1.44771525,15 1,14.5522847 1,14 L1,5 L15,5 Z M4.75829349,7 C4.52266901,7 4.30285361,7.1693457 4.17340164,7.45060047 L3,10 L10,10 L8.92589894,7.47993498 C8.7988674,7.18189251 8.57227114,7 8.32801027,7 L4.75829349,7 Z M4,12.4 L9,12.4 L9,12.5 C9,12.7761424 9.22385763,13 9.5,13 C9.77614237,13 10,12.7761424 10,12.5 L10,11.5 C10,11.4860619 9.99942969,11.472257 9.99831113,11.4586074 C9.99943187,11.4392146 10,11.4196737 10,11.4 L10,10 L3,10 L3,11.4 C3,11.4196737 3.00056813,11.4392146 3.00168887,11.4586074 C3.00057031,11.472257 3,11.4860619 3,11.5 L3,12.5 C3,12.7761424 3.22385763,13 3.5,13 C3.77614237,13 4,12.7761424 4,12.5 L4,12.4 Z M11.5,7 C11.2238576,7 11,7.22385763 11,7.5 L11,8.5 C11,8.77614237 11.2238576,9 11.5,9 L12.5,9 C12.7761424,9 13,8.77614237 13,8.5 L13,7.5 C13,7.22385763 12.7761424,7 12.5,7 L11.5,7 Z M11.5,10 C11.2238576,10 11,10.2238576 11,10.5 L11,12.5 C11,12.7761424 11.2238576,13 11.5,13 L12.5,13 C12.7761424,13 13,12.7761424 13,12.5 L13,10.5 C13,10.2238576 12.7761424,10 12.5,10 L11.5,10 Z M9,2 L9,3 L11,3 L11,2 L9,2 Z M12,2 L12,3 L13,3 L13,2 L12,2 Z" id="合并形状"></path>
            <path d="M8.50017477,11 C8.22400414,11 8,10.776083 8,10.4998511 C8,10.2235989 8.22400414,10 8.50017477,10 C8.77601683,10 9,10.2235989 9,10.4998511 C9,10.776083 8.77601683,11 8.50017477,11 Z" id="路径-copy-2"></path>
            <path d="M4.50017477,11 C4.22400414,11 4,10.776083 4,10.4998511 C4,10.2235989 4.22400414,10 4.50017477,10 C4.77601683,10 5,10.2235989 5,10.4998511 C5,10.776083 4.77601683,11 4.50017477,11 Z" id="路径-copy-6"></path>
            <polygon id="路径" fill-rule="nonzero" points="8.31103516 8 4.74371338 8 4.3114624 9 8.64984131 9"></polygon>
        </g>
    <!-- </g> -->
</svg>