<?xml version="1.0" encoding="UTF-8"?>
<svg width="16px" height="16px" class="icon" viewBox="0 0 16 16" version="1.1" xmlns="http://www.w3.org/2000/svg" xmlns:xlink="http://www.w3.org/1999/xlink">
    <!-- Generator: Sketch 52.2 (67145) - http://www.bohemiancoding.com/sketch -->
    <title>实有车辆</title>
    <desc>Created with Sketch.</desc>
    <!-- <g id="后台" stroke="none" stroke-width="1" fill="none" fill-rule="evenodd"> -->
        <g id="实有车辆">
            <rect id="矩形" x="2" y="12" width="2" height="3" rx="1"></rect>
            <rect id="矩形-copy-54" x="12" y="12" width="2" height="3" rx="1"></rect>
            <path d="M1,7 L15,7 L15,11 C15,12.1045695 14.1045695,13 13,13 L3,13 C1.8954305,13 1,12.1045695 1,11 L1,7 Z M4.00034955,11 C4.55203367,11 5,10.5521661 5,9.99970226 C5,9.44719782 4.55203367,9 4.00034955,9 C3.44800828,9 3,9.44719782 3,9.99970226 C3,10.5521661 3.44800828,11 4.00034955,11 Z M12.0003495,11 C12.5520337,11 13,10.5521661 13,9.99970226 C13,9.44719782 12.5520337,9 12.0003495,9 C11.4480083,9 11,9.44719782 11,9.99970226 C11,10.5521661 11.4480083,11 12.0003495,11 Z" id="合并形状"></path>
            <path d="M4.51658698,1 L11.6560205,1 C12.1445423,1 12.5977348,1.36378503 12.8517979,1.95986996 L15,7 L1,7 L3.34680327,1.90120095 C3.60570723,1.3386914 4.04533801,1 4.51658698,1 Z M11.4031628,2 L4.58783282,2 L3,6 L13,6 L11.4031628,2 Z" id="合并形状"></path>
            <rect id="矩形" x="12" y="7" width="4" height="1" rx="0.5"></rect>
            <rect id="矩形-copy-101" x="0" y="7" width="4" height="1" rx="0.5"></rect>
        </g>
    <!-- </g> -->
</svg>