<?xml version="1.0" encoding="UTF-8"?>
<svg width="16px" height="16px" class="icon" viewBox="0 0 16 16" version="1.1" xmlns="http://www.w3.org/2000/svg" xmlns:xlink="http://www.w3.org/1999/xlink">
    <!-- Generator: Sketch 52.2 (67145) - http://www.bohemiancoding.com/sketch -->
    <title>中心信息管理</title>
    <desc>Created with Sketch.</desc>
    <!-- <g id="后台" stroke="none" stroke-width="1" fill="none" fill-rule="evenodd"> -->
        <g id="中心信息管理">
            <path d="M8,16 C3.581722,16 0,12.418278 0,8 C0,3.581722 3.581722,0 8,0 C12.418278,0 16,3.581722 16,8 C16,12.418278 12.418278,16 8,16 Z M6.96410162,5.17070571 C6.61298715,5.29480686 6.29187275,5.48241617 6.0145606,5.71973143 L5,5.1339746 L4,6.8660254 L5.01412339,7.45152981 C4.9812715,7.62935105 4.96410162,7.81267041 4.96410162,8 C4.96410162,8.18732959 4.9812715,8.37064895 5.01412339,8.54847019 L4,9.1339746 L5,10.8660254 L6.0145606,10.2802686 C6.29187275,10.5175838 6.61298715,10.7051931 6.96410162,10.8292943 L6.96410162,12 L8.96410162,12 L8.96410162,10.8292943 C9.31521608,10.7051931 9.63633048,10.5175838 9.91364263,10.2802686 L10.9282032,10.8660254 L11.9282032,9.1339746 L10.9140798,8.54847019 C10.9469317,8.37064895 10.9641016,8.18732959 10.9641016,8 C10.9641016,7.81267041 10.9469317,7.62935105 10.9140798,7.45152981 L11.9282032,6.8660254 L10.9282032,5.1339746 L9.91364263,5.71973143 C9.63633048,5.48241617 9.31521608,5.29480686 8.96410162,5.17070571 L8.96410162,4 L6.96410162,4 L6.96410162,5.17070571 Z M7.96410162,9 C7.41181687,9 6.96410162,8.55228475 6.96410162,8 C6.96410162,7.44771525 7.41181687,7 7.96410162,7 C8.51638636,7 8.96410162,7.44771525 8.96410162,8 C8.96410162,8.55228475 8.51638636,9 7.96410162,9 Z" id="合并形状"></path>
        </g>
    <!-- </g> -->
</svg>