<?xml version="1.0" encoding="UTF-8"?>
<svg width="16px" height="16px" class="icon" viewBox="0 0 16 16" version="1.1" xmlns="http://www.w3.org/2000/svg" xmlns:xlink="http://www.w3.org/1999/xlink">
    <!-- Generator: Sketch 52.2 (67145) - http://www.bohemiancoding.com/sketch -->
    <title>统一编码管理</title>
    <desc>Created with Sketch.</desc>
    <!-- <g id="后台" stroke="none" stroke-width="1" fill="none" fill-rule="evenodd"> -->
        <g id="统一编码管理">
            <path d="M5.98188826,2.34141142 L5.98188826,0 L10.0181117,0 L10.0181117,2.34141142 C10.7267,2.58961373 11.3747447,2.96483234 11.9343916,3.43946286 L13.9818883,2.26794919 L16,5.73205081 L13.9533857,6.90305963 C14.0196845,7.25870211 14.0543352,7.62534081 14.0543352,8 C14.0543352,8.37465919 14.0196845,8.74129789 13.9533857,9.09694037 L16,10.2679492 L13.9818883,13.7320508 L11.9343916,12.5605371 C11.3747447,13.0351677 10.7267,13.4103863 10.0181117,13.6585886 L10.0181117,16 L5.98188826,16 L5.98188826,13.6585886 C5.27330004,13.4103863 4.62525529,13.0351677 4.06560839,12.5605371 L2.01811174,13.7320508 L2.93969293e-11,10.2679492 L2.04661431,9.09694037 C1.98031553,8.74129789 1.94566479,8.37465919 1.94566479,8 C1.94566479,7.62534081 1.98031553,7.25870211 2.04661431,6.90305963 L-1.49178447e-11,5.73205081 L2.01811174,2.26794919 L4.06560839,3.43946286 C4.62525529,2.96483234 5.27330004,2.58961373 5.98188826,2.34141142 Z M10.7071068,8 L9.64644661,9.10819419 C9.45118446,9.3122071 9.45118446,9.6429774 9.64644661,9.84699031 C9.84170876,10.0510032 10.1582912,10.0510032 10.3535534,9.84699031 L11.767767,8.36939806 C11.9630291,8.16538515 11.9630291,7.83461485 11.767767,7.63060194 L10.3535534,6.15300969 C10.1582912,5.94899677 9.84170876,5.94899677 9.64644661,6.15300969 C9.45118446,6.3570226 9.45118446,6.6877929 9.64644661,6.89180581 L10.7071068,8 Z M5.20710678,8 L6.26776695,6.89180581 C6.4630291,6.6877929 6.4630291,6.3570226 6.26776695,6.15300969 C6.07250481,5.94899677 5.75592232,5.94899677 5.56066017,6.15300969 L4.14644661,7.63060194 C3.95118446,7.83461485 3.95118446,8.16538515 4.14644661,8.36939806 L5.56066017,9.84699031 C5.75592232,10.0510032 6.07250481,10.0510032 6.26776695,9.84699031 C6.4630291,9.6429774 6.4630291,9.3122071 6.26776695,9.10819419 L5.20710678,8 Z M8.72754638,6.10947837 C8.46805743,6.01503212 8.18113626,6.14882566 8.08669,6.40831461 L7.06062957,9.22739247 C6.96618332,9.48688142 7.09997686,9.7738026 7.35946581,9.86824885 C7.61895476,9.96269511 7.90587594,9.82890157 8.00032219,9.56941262 L9.02638262,6.75033475 C9.12082888,6.4908458 8.98703534,6.20392463 8.72754638,6.10947837 Z" id="合并形状"></path>
        </g>
    <!-- </g> -->
</svg>