<?xml version="1.0" encoding="UTF-8"?>
<svg width="16px" height="16px" class="icon" viewBox="0 0 16 16" version="1.1" xmlns="http://www.w3.org/2000/svg" xmlns:xlink="http://www.w3.org/1999/xlink">
    <!-- Generator: Sketch 52.2 (67145) - http://www.bohemiancoding.com/sketch -->
    <title>综合大数据视窗</title>
    <desc>Created with Sketch.</desc>
    <!-- <g id="后台" stroke="none" stroke-width="1" fill="none" fill-rule="evenodd"> -->
        <g id="综合大数据视窗">
            <path d="M15,4 L1,4 L1,2 C1,1.44771525 1.44771525,1 2,1 L14,1 C14.5522847,1 15,1.44771525 15,2 L15,4 Z M15,5 L15,14 C15,14.5522847 14.5522847,15 14,15 L2,15 C1.44771525,15 1,14.5522847 1,14 L1,5 L15,5 Z M3.5,7 C3.22385763,7 3,7.22385763 3,7.5 L3,12.5 C3,12.7761424 3.22385763,13 3.5,13 L5.5,13 C5.77614237,13 6,12.7761424 6,12.5 L6,7.5 C6,7.22385763 5.77614237,7 5.5,7 L3.5,7 Z M7.5,10 C7.22385763,10 7,10.2238576 7,10.5 L7,12.5 C7,12.7761424 7.22385763,13 7.5,13 L12.5,13 C12.7761424,13 13,12.7761424 13,12.5 L13,10.5 C13,10.2238576 12.7761424,10 12.5,10 L7.5,10 Z M7.5,7 C7.22385763,7 7,7.22385763 7,7.5 L7,8.5 C7,8.77614237 7.22385763,9 7.5,9 L12.5,9 C12.7761424,9 13,8.77614237 13,8.5 L13,7.5 C13,7.22385763 12.7761424,7 12.5,7 L7.5,7 Z M9,2 L9,3 L11,3 L11,2 L9,2 Z M12,2 L12,3 L13,3 L13,2 L12,2 Z" id="合并形状"></path>
        </g>
    <!-- </g> -->
</svg>