<?xml version="1.0" encoding="UTF-8"?>
<svg width="16px" height="16px" class="icon" viewBox="0 0 16 16" version="1.1" xmlns="http://www.w3.org/2000/svg" xmlns:xlink="http://www.w3.org/1999/xlink">
    <!-- Generator: Sketch 52.2 (67145) - http://www.bohemiancoding.com/sketch -->
    <title>实有设备</title>
    <desc>Created with Sketch.</desc>
    <!-- <g id="后台" stroke="none" stroke-width="1" fill="none" fill-rule="evenodd"> -->
        <g id="实有设备">
            <rect id="矩形-copy-108" x="7" y="10" width="2" height="5" rx="1"></rect>
            <path d="M3,1 L13,1 C14.1045695,1 15,1.8954305 15,3 C15,4.1045695 14.1045695,5 13,5 L3,5 C1.8954305,5 1,4.1045695 1,3 C1,1.8954305 1.8954305,1 3,1 Z M11.5,2 C10.9477153,2 10.5,2.44771525 10.5,3 C10.5,3.55228475 10.9477153,4 11.5,4 C12.0522847,4 12.5,3.55228475 12.5,3 C12.5,2.44771525 12.0522847,2 11.5,2 Z" id="合并形状"></path>
            <path d="M3,7 L13,7 C14.1045695,7 15,7.8954305 15,9 C15,10.1045695 14.1045695,11 13,11 L3,11 C1.8954305,11 1,10.1045695 1,9 C1,7.8954305 1.8954305,7 3,7 Z M11.5,8 C10.9477153,8 10.5,8.44771525 10.5,9 C10.5,9.55228475 10.9477153,10 11.5,10 C12.0522847,10 12.5,9.55228475 12.5,9 C12.5,8.44771525 12.0522847,8 11.5,8 Z" id="合并形状"></path>
            <rect id="矩形-copy-104" x="2" y="13" width="12" height="2" rx="1"></rect>
        </g>
    <!-- </g> -->
</svg>