<?xml version="1.0" encoding="UTF-8"?>
<svg width="16px" height="16px" class="icon" viewBox="0 0 16 16" version="1.1" xmlns="http://www.w3.org/2000/svg" xmlns:xlink="http://www.w3.org/1999/xlink">
    <!-- Generator: Sketch 52.2 (67145) - http://www.bohemiancoding.com/sketch -->
    <title>人脸检测</title>
    <desc>Created with Sketch.</desc>
    <!-- <g id="后台" stroke="none" stroke-width="1" fill="none" fill-rule="evenodd"> -->
        <g id="人脸检测">
            <path d="M1,1 L1,2.5 C1,2.77614237 0.776142375,3 0.5,3 C0.223857625,3 3.38176876e-17,2.77614237 0,2.5 L0,1 C-6.76353751e-17,0.44771525 0.44771525,1.01453063e-16 1,0 L2.5,0 C2.77614237,-5.07265313e-17 3,0.223857625 3,0.5 C3,0.776142375 2.77614237,1 2.5,1 L1,1 Z" id="合并形状"></path>
            <path d="M14,1 L14,2.5 C14,2.77614237 13.7761424,3 13.5,3 C13.2238576,3 13,2.77614237 13,2.5 L13,1 C13,0.44771525 13.4477153,1.01453063e-16 14,0 L15.5,0 C15.7761424,-5.07265313e-17 16,0.223857625 16,0.5 C16,0.776142375 15.7761424,1 15.5,1 L14,1 Z" id="合并形状-copy-3" transform="translate(14.500000, 1.500000) scale(-1, 1) translate(-14.500000, -1.500000) "></path>
            <path d="M1,14 L1,15.5 C1,15.7761424 0.776142375,16 0.5,16 C0.223857625,16 3.38176876e-17,15.7761424 0,15.5 L0,14 C-6.76353751e-17,13.4477153 0.44771525,13 1,13 L2.5,13 C2.77614237,13 3,13.2238576 3,13.5 C3,13.7761424 2.77614237,14 2.5,14 L1,14 Z" id="合并形状-copy-2" transform="translate(1.500000, 14.500000) scale(1, -1) translate(-1.500000, -14.500000) "></path>
            <path d="M14,14 L14,15.5 C14,15.7761424 13.7761424,16 13.5,16 C13.2238576,16 13,15.7761424 13,15.5 L13,14 C13,13.4477153 13.4477153,13 14,13 L15.5,13 C15.7761424,13 16,13.2238576 16,13.5 C16,13.7761424 15.7761424,14 15.5,14 L14,14 Z" id="合并形状-copy-4" transform="translate(14.500000, 14.500000) scale(-1, -1) translate(-14.500000, -14.500000) "></path>
            <path d="M12.7336165,9 L3.26632911,9 C3.09368943,8.32325735 3,7.62888422 3,6.95250908 C3,3.64443496 5.24161329,2 7.99988096,2 C10.7581486,2 13,3.64443496 13,6.95250908 C13,7.6288625 12.9062903,8.32324007 12.7336165,9 Z M11.3345351,12 C10.4493033,13.1942917 9.28022765,14 7.99988096,14 C6.71949847,14 5.55044459,13.194309 4.66525887,12 L11.3345351,12 Z" id="合并形状"></path>
            <rect id="矩形" x="1" y="10" width="14" height="1" rx="0.5"></rect>
        </g>
    <!-- </g> -->
</svg>