<?xml version="1.0" encoding="UTF-8"?>
<svg width="16px" height="16px" class="icon" viewBox="0 0 16 16" version="1.1" xmlns="http://www.w3.org/2000/svg" xmlns:xlink="http://www.w3.org/1999/xlink">
    <!-- Generator: Sketch 52.2 (67145) - http://www.bohemiancoding.com/sketch -->
    <title>清洗数据</title>
    <desc>Created with Sketch.</desc>
    <!-- <g id="后台" stroke="none" stroke-width="1" fill="none" fill-rule="evenodd"> -->
        <g id="清洗数据">
            <rect id="矩形" x="5" y="0" width="6" height="9" rx="3"></rect>
            <path d="M0,10 L16,10 L16,16 L14.5,16 L14.5,13 L13.5,13 L13.5,16 L11.5,16 L11.5,13 L10.5,13 L10.5,16 L8.5,16 L8.5,13 L7.5,13 L7.5,16 L5.5,16 L5.5,13 L4.5,13 L4.5,16 L2.5,16 L2.5,13 L1.5,13 L1.5,16 L0,16 L0,10 Z M0,9 L0,8 C-1.3527075e-16,6.8954305 0.8954305,6 2,6 L14,6 C15.1045695,6 16,6.8954305 16,8 L16,9 L0,9 Z" id="合并形状"></path>
        </g>
    <!-- </g> -->
</svg>