<?xml version="1.0" encoding="UTF-8"?>
<svg width="64" height="64" class="icon" viewBox="0 0 16 16" version="1.1" xmlns="http://www.w3.org/2000/svg" xmlns:xlink="http://www.w3.org/1999/xlink">
    <!-- Generator: Sketch 52.2 (67145) - http://www.bohemiancoding.com/sketch -->
    <title>人脸特征值</title>
    <desc>Created with Sketch.</desc>
    <!-- <g id="后台" stroke="none" stroke-width="1" fill="none" fill-rule="evenodd"> -->
        <g id="人脸特征值">
            <path d="M3.25695169,13.2364672 C3.59934619,12.7502546 3.92077131,12.3578509 4.21796206,12.0606602 C4.62976533,11.6488569 4.90406367,11.5 5,11.5 C8.10054305,11.5 9.6405617,11.0020961 10.7672828,8.64745939 C11.3313985,7.46856281 11.444543,6.70491492 11.3173971,5.81101064 C11.4166521,5.78084999 11.5665495,5.74701336 11.8106764,5.69993758 C12.8006916,5.50902977 13.1470814,5.42261354 13.741806,5.15217492 C14.0971772,4.99057727 14.4305888,4.79223081 14.7418841,4.55388356 C14.910055,5.17355214 15,5.85666469 15,6.60334543 C15,11.0142073 11.8614081,16 7.99983334,16 C6.17118633,16 4.50474236,14.8820265 3.25695169,13.2364672 Z M1.69800814,10.3569747 C1.25086245,9.14363491 1,7.85054191 1,6.60334543 C1,2.19257995 4.13825861,0 7.99983334,0 C10.0713935,0 11.934891,0.630988795 13.2173969,1.89691945 C12.998503,2.1363243 12.7634585,2.30145377 12.4999814,2.42126452 C12.2001214,2.55761958 11.9891147,2.61026085 11.2426415,2.7542057 C9.93302601,3.00674307 9.25828783,3.29852615 8.70571569,4.2418258 C8.37361208,4.80876211 8.25579938,5.33615475 8.30622459,5.90925087 C8.31520119,6.01127233 8.31906664,6.03976343 8.34599148,6.2244442 C8.3927076,6.54487577 8.3689579,6.70926773 8.06114433,7.35254061 C7.59809753,8.32022198 7.04204343,8.5 5,8.5 C3.84414757,8.5 2.77429033,9.1321159 1.69800814,10.3569747 Z" id="合并形状"></path>
            <path d="M1,14.0524902 C2.54306919,11.3858236 3.87640252,10.0524902 5,10.0524902 C6.68539621,10.0524902 8.45719027,10.0524902 9.41421356,8.05249023 C10.3712369,6.05249023 9.41421356,6.05249023 10,5.05249023 C10.7924469,3.69969875 13.3436017,5.01054066 15,2" id="路径-5-copy-3"></path>
        </g>
    <!-- </g> -->
</svg>