<?xml version="1.0" encoding="UTF-8"?>
<svg width="16px" height="16px" class="icon" viewBox="0 0 16 16" version="1.1" xmlns="http://www.w3.org/2000/svg" xmlns:xlink="http://www.w3.org/1999/xlink">
    <!-- Generator: Sketch 52.2 (67145) - http://www.bohemiancoding.com/sketch -->
    <title>异常数据</title>
    <desc>Created with Sketch.</desc>
    <!-- <g id="后台" stroke="none" stroke-width="1" fill="none" fill-rule="evenodd"> -->
        <g id="异常数据">
            <path d="M2,1 L14,1 C14.5522847,1 15,1.44771525 15,2 L15,14 C15,14.5522847 14.5522847,15 14,15 L2,15 C1.44771525,15 1,14.5522847 1,14 L1,2 C1,1.44771525 1.44771525,1 2,1 Z M12,3 C11.4477153,3 11,3.44771525 11,4 L11,9 C11,9.55228475 11.4477153,10 12,10 C12.5522847,10 13,9.55228475 13,9 L13,4 C13,3.44771525 12.5522847,3 12,3 Z M12,11 C11.4477153,11 11,11.4477153 11,12 C11,12.5522847 11.4477153,13 12,13 C12.5522847,13 13,12.5522847 13,12 C13,11.4477153 12.5522847,11 12,11 Z M3,5 C2.72385763,5 2.5,5.22385763 2.5,5.5 L2.5,12.5 C2.5,12.7761424 2.72385763,13 3,13 C3.27614237,13 3.5,12.7761424 3.5,12.5 L3.5,5.5 C3.5,5.22385763 3.27614237,5 3,5 Z M6,8 C5.72385763,8 5.5,8.22385763 5.5,8.5 L5.5,12.5 C5.5,12.7761424 5.72385763,13 6,13 C6.27614237,13 6.5,12.7761424 6.5,12.5 L6.5,8.5 C6.5,8.22385763 6.27614237,8 6,8 Z M9,7 C8.72385763,7 8.5,7.22385763 8.5,7.5 L8.5,12.5 C8.5,12.7761424 8.72385763,13 9,13 C9.27614237,13 9.5,12.7761424 9.5,12.5 L9.5,7.5 C9.5,7.22385763 9.27614237,7 9,7 Z" id="合并形状"></path>
        </g>
    <!-- </g> -->
</svg>