<?xml version="1.0" encoding="UTF-8"?>
<svg width="16px" height="16px" class="icon" viewBox="0 0 16 16" version="1.1" xmlns="http://www.w3.org/2000/svg" xmlns:xlink="http://www.w3.org/1999/xlink">
    <!-- Generator: Sketch 52.2 (67145) - http://www.bohemiancoding.com/sketch -->
    <title>实有人口</title>
    <desc>Created with Sketch.</desc>
    <!-- <g id="后台" stroke="none" stroke-width="1" fill="none" fill-rule="evenodd"> -->
        <g id="实有人口">
            <path d="M13.9999951,3.0070474 C13.9980674,4.10393102 13.1060263,4.99466618 12.0043483,4.9999768 C10.91761,5.00528742 10.00581,4.09813762 10.0000269,3.00753018 C9.99424385,1.90919821 10.9205015,0.988047697 12.0183241,1.00011728 C13.1180744,1.01266965 14.0024047,1.90774986 13.9999951,3.0070474" id="路径"></path>
            <path d="M3.99659361,1.00000079 C5.09664906,0.999035093 5.99174022,1.88602573 5.99993879,2.9874006 C6.00861963,4.09505249 5.09279091,5.01053112 3.98887731,4.99990848 C2.88785732,4.98880299 1.99951793,4.0931211 2.0000002,2.99512616 C2.00096473,1.9000283 2.89991404,1.00144933 3.99659361,1.00000079" id="路径"></path>
            <path d="M5.86602199,10.7740241 C5.74078859,11.7103049 5.61845634,12.6228285 5.49709115,13.5359612 C5.45163964,13.8819648 5.40328698,14.2279684 5.36605542,14.5770178 C5.33414266,14.8755068 5.22486564,15.0052582 4.97053061,14.9967299 C4.34242948,14.9772367 3.71287776,14.970536 3.08526015,14.9991665 C2.77725366,15.0125681 2.6636249,14.8651511 2.62059103,14.4990452 C2.48858825,13.3818434 2.33434324,12.2689058 2.18831819,11.1541407 C2.17332886,11.0432734 2.15060311,10.9336243 2.12255856,10.7740241 C1.86097064,10.7740241 1.5955145,10.7782882 1.33005836,10.7728058 C1.01141429,10.7667142 0.941786448,10.6424453 1.04332705,10.2531912 C1.38663098,8.94410369 1.73767134,7.6374528 2.07565648,6.32592862 C2.139482,6.07739083 2.24585786,5.99880903 2.44555437,6.00063651 C3.48320259,6.00977393 4.52085082,6.00977393 5.55801551,6.00002735 C5.76158023,5.99819986 5.86118673,6.08774657 5.92404519,6.33262939 C6.26203033,7.64476273 6.61355422,8.9501953 6.95685815,10.2605012 C7.05839875,10.6479277 6.98828738,10.7673233 6.66529157,10.7734149 C6.40708833,10.7782882 6.14888509,10.7740241 5.86602199,10.7740241" id="路径"></path>
            <path d="M13.866022,10.7740241 C13.7407886,11.7103049 13.6184563,12.6228285 13.4970911,13.5359612 C13.4516396,13.8819648 13.403287,14.2279684 13.3660554,14.5770178 C13.3341427,14.8755068 13.2248656,15.0052582 12.9705306,14.9967299 C12.3424295,14.9772367 11.7128778,14.970536 11.0852601,14.9991665 C10.7772537,15.0125681 10.6636249,14.8651511 10.620591,14.4990452 C10.4885882,13.3818434 10.3343432,12.2689058 10.1883182,11.1541407 C10.1733289,11.0432734 10.1506031,10.9336243 10.1225586,10.7740241 C9.86097064,10.7740241 9.5955145,10.7782882 9.33005836,10.7728058 C9.01141429,10.7667142 8.94178645,10.6424453 9.04332705,10.2531912 C9.38663098,8.94410369 9.73767134,7.6374528 10.0756565,6.32592862 C10.139482,6.07739083 10.2458579,5.99880903 10.4455544,6.00063651 C11.4832026,6.00977393 12.5208508,6.00977393 13.5580155,6.00002735 C13.7615802,5.99819986 13.8611867,6.08774657 13.9240452,6.33262939 C14.2620303,7.64476273 14.6135542,8.9501953 14.9568581,10.2605012 C15.0583987,10.6479277 14.9882874,10.7673233 14.6652916,10.7734149 C14.4070883,10.7782882 14.1488851,10.7740241 13.866022,10.7740241" id="路径-copy-8"></path>
        </g>
    <!-- </g> -->
</svg>