<?xml version="1.0" encoding="UTF-8"?>
<svg width="16px" height="16px" class="icon" viewBox="0 0 16 16" version="1.1" xmlns="http://www.w3.org/2000/svg" xmlns:xlink="http://www.w3.org/1999/xlink">
    <!-- Generator: Sketch 52.2 (67145) - http://www.bohemiancoding.com/sketch -->
    <title>人脸抓拍</title>
    <desc>Created with Sketch.</desc>
    <!-- <g id="后台" stroke="none" stroke-width="1" fill="none" fill-rule="evenodd"> -->
        <g id="人脸抓拍">
            <path d="M3,1 L3,2.5 C3,2.77614237 2.77614237,3 2.5,3 C2.22385763,3 2,2.77614237 2,2.5 L2,1 C2,0.44771525 2.44771525,1.01453063e-16 3,0 L4.5,0 C4.77614237,-5.07265313e-17 5,0.223857625 5,0.5 C5,0.776142375 4.77614237,1 4.5,1 L3,1 Z" id="合并形状"></path>
            <path d="M12,1 L12,2.5 C12,2.77614237 11.7761424,3 11.5,3 C11.2238576,3 11,2.77614237 11,2.5 L11,1 C11,0.44771525 11.4477153,1.01453063e-16 12,0 L13.5,0 C13.7761424,-5.07265313e-17 14,0.223857625 14,0.5 C14,0.776142375 13.7761424,1 13.5,1 L12,1 Z" id="合并形状-copy-3" transform="translate(12.500000, 1.500000) scale(-1, 1) translate(-12.500000, -1.500000) "></path>
            <path d="M3,6 L3,7.5 C3,7.77614237 2.77614237,8 2.5,8 C2.22385763,8 2,7.77614237 2,7.5 L2,6 C2,5.44771525 2.44771525,5 3,5 L4.5,5 C4.77614237,5 5,5.22385763 5,5.5 C5,5.77614237 4.77614237,6 4.5,6 L3,6 Z" id="合并形状-copy-2" transform="translate(3.500000, 6.500000) scale(1, -1) translate(-3.500000, -6.500000) "></path>
            <path d="M12,6 L12,7.5 C12,7.77614237 11.7761424,8 11.5,8 C11.2238576,8 11,7.77614237 11,7.5 L11,6 C11,5.44771525 11.4477153,5 12,5 L13.5,5 C13.7761424,5 14,5.22385763 14,5.5 C14,5.77614237 13.7761424,6 13.5,6 L12,6 Z" id="合并形状-copy-4" transform="translate(12.500000, 6.500000) scale(-1, -1) translate(-12.500000, -6.500000) "></path>
            <path d="M11.6859589,16 L4.31412492,16 C3.42910478,16 2.78036939,14.6654913 3.06979554,13.3829083 C3.7764248,10.2498488 5.71681997,8 7.99991229,8 C10.282983,8 12.2233998,10.2498488 12.9302667,13.3829083 C13.2195416,14.6654913 12.5708062,16 11.6859589,16 Z" id="路径"></path>
            <circle id="椭圆形" cx="8" cy="4" r="3"></circle>
        </g>
    <!-- </g> -->
</svg>