<?xml version="1.0" encoding="UTF-8"?>
<svg width="16px" height="16px" class="icon" viewBox="0 0 16 16" version="1.1" xmlns="http://www.w3.org/2000/svg" xmlns:xlink="http://www.w3.org/1999/xlink">
    <!-- Generator: Sketch 52.2 (67145) - http://www.bohemiancoding.com/sketch -->
    <title>轨迹分析</title>
    <desc>Created with Sketch.</desc>
    <!-- <g id="后台" stroke="none" stroke-width="1" fill="none" fill-rule="evenodd"> -->
        <g id="轨迹分析">
            <path d="M4,12.7324356 C4.29417337,12.9026057 4.63571286,13 5,13 L11,13 C12.1045695,13 13,12.1045695 13,11 C13,9.8954305 12.1045695,9 11,9 L9,9 L9,8 L11,8 C12.6568542,8 14,9.34314575 14,11 C14,12.6568542 12.6568542,14 11,14 L5,14 C4.64936458,14 4.31277893,13.9398458 4,13.8292943 L4,12.7324356 Z" id="合并形状" fill-rule="nonzero"></path>
            <path d="M2,8 L6,8 C7.1045695,8 8,7.1045695 8,6 C8,4.8954305 7.1045695,4 6,4 L2,4 L2,3 L6,3 C7.65685425,3 9,4.34314575 9,6 C9,7.65685425 7.65685425,9 6,9 L2,9 L2,8 Z" id="合并形状-copy" fill-rule="nonzero" transform="translate(5.500000, 6.000000) scale(-1, 1) translate(-5.500000, -6.000000) "></path>
            <rect id="矩形-copy-53" x="9" y="0" width="7" height="7" rx="3.5"></rect>
            <rect id="矩形-copy-55" x="0" y="11" width="5" height="5" rx="2.5"></rect>
        </g>
    <!-- </g> -->
</svg>