<?xml version="1.0" encoding="UTF-8"?>
<svg width="16px" height="12px" viewBox="0 0 16 12" class="icon" version="1.1" xmlns="http://www.w3.org/2000/svg" xmlns:xlink="http://www.w3.org/1999/xlink">
    <!-- Generator: Sketch 52.2 (67145) - http://www.bohemiancoding.com/sketch -->
    <title>网卡配置</title>
    <desc>Created with Sketch.</desc>
    <g id="网卡配置">
        <path d="M0,2 L16,2 L16,11 L0,11 L0,2 Z M2,4 L2,9 L3,9 L3,4 L2,4 Z M4,4 L4,9 L5,9 L5,4 L4,4 Z M6,4 L6,9 L7,9 L7,4 L6,4 Z M9,4 L9,9 L10,9 L10,4 L9,4 Z M11,4 L11,9 L12,9 L12,4 L11,4 Z M13,4 L13,9 L14,9 L14,4 L13,4 Z" id="合并形状"></path>
        <rect id="矩形-copy-151" x="2" y="11" width="12" height="2"></rect>
        <rect id="矩形-copy-152" x="5" y="12" width="6" height="2"></rect>
    </g>
</svg>