<?xml version="1.0" encoding="UTF-8"?>
<svg width="16px" height="16px" class="icon" viewBox="0 0 16 16" version="1.1" xmlns="http://www.w3.org/2000/svg" xmlns:xlink="http://www.w3.org/1999/xlink">
    <!-- Generator: Sketch 52.2 (67145) - http://www.bohemiancoding.com/sketch -->
    <title>实时视频</title>
    <desc>Created with Sketch.</desc>
    <!-- <g id="后台" stroke="none" stroke-width="1" fill="none" fill-rule="evenodd"> -->
        <g id="分组-13" transform="translate(6.000000, -10.000000)"></g>
        <g id="实时视频">
            <path d="M12,6.34314575 L14.2928932,4.05025253 C14.6834175,3.65972824 15.3165825,3.65972824 15.7071068,4.05025253 C15.8946432,4.23778891 16,4.49214282 16,4.75735931 L16,11.2426407 C16,11.7949254 15.5522847,12.2426407 15,12.2426407 C14.7347835,12.2426407 14.4804296,12.1372838 14.2928932,11.9497475 L12,9.65685425 L12,12 C12,13.1045695 11.1045695,14 10,14 L2,14 C0.8954305,14 1.3527075e-16,13.1045695 0,12 L0,4 C-1.3527075e-16,2.8954305 0.8954305,2 2,2 L10,2 C11.1045695,2 12,2.8954305 12,4 L12,6.34314575 Z M5.01684588,5.86460012 C4.85036016,5.75045362 4.65322716,5.68936393 4.4513685,5.68936393 C3.89908375,5.68936393 3.4513685,6.13707918 3.4513685,6.68936393 L3.4513685,9.79591745 C3.4513685,9.9977761 3.51245819,10.1949091 3.62660469,10.3613948 C3.93890922,10.8168993 4.5613414,10.9329858 5.01684588,10.6206813 L7.2823414,9.0674045 C7.384013,8.99769606 7.4719194,8.90978967 7.54162783,8.80811806 C7.85393236,8.35261359 7.73784587,7.73018141 7.2823414,7.41787688 L5.01684588,5.86460012 Z" id="合并形状"></path>
        </g>
    <!-- </g> -->
</svg>