<?xml version="1.0" encoding="UTF-8"?>
<svg width="16px" height="16px" class="icon" viewBox="0 0 16 16" version="1.1" xmlns="http://www.w3.org/2000/svg" xmlns:xlink="http://www.w3.org/1999/xlink">
    <!-- Generator: Sketch 52.2 (67145) - http://www.bohemiancoding.com/sketch -->
    <title>短信发送记录</title>
    <desc>Created with Sketch.</desc>
    <!-- <g id="后台" stroke="none" stroke-width="1" fill="none" fill-rule="evenodd"> -->
        <g id="短信发送记录">
            <path d="M16,3.07806396 L8,6.20227051 L0,3.07806396 L0,3 C0,2.44771525 0.44771525,2 1,2 L15,2 C15.5522847,2 16,2.44771525 16,3 L16,3.07806396 Z" id="路径"></path>
            <path d="M16,4 L16,13.3735431 C16,13.9258279 15.5522847,14.3735431 15,14.3735431 L1,14.3735431 C0.44771525,14.3735431 0,13.9258279 0,13.3735431 L0,4 L7.60299581,7.12288757 C7.85741659,7.22738946 8.14277594,7.22738946 8.39719672,7.12288757 L16,4 Z M9.5,10 C9.22385763,10 9,10.2238576 9,10.5 C9,10.7761424 9.22385763,11 9.5,11 L11.5,11 C11.7761424,11 12,10.7761424 12,10.5 C12,10.2238576 11.7761424,10 11.5,10 L9.5,10 Z M9.5,8 C9.22385763,8 9,8.22385763 9,8.5 C9,8.77614237 9.22385763,9 9.5,9 L14.5,9 C14.7761424,9 15,8.77614237 15,8.5 C15,8.22385763 14.7761424,8 14.5,8 L9.5,8 Z M9.5,12 C9.22385763,12 9,12.2238576 9,12.5 C9,12.7761424 9.22385763,13 9.5,13 L12.5,13 C12.7761424,13 13,12.7761424 13,12.5 C13,12.2238576 12.7761424,12 12.5,12 L9.5,12 Z" id="合并形状"></path>
        </g>
    <!-- </g> -->
</svg>