<?xml version="1.0" encoding="UTF-8"?>
<svg width="16px" height="16px" class="icon" viewBox="0 0 16 16" version="1.1" xmlns="http://www.w3.org/2000/svg" xmlns:xlink="http://www.w3.org/1999/xlink">
    <!-- Generator: Sketch 52.2 (67145) - http://www.bohemiancoding.com/sketch -->
    <title>停车场管理</title>
    <desc>Created with Sketch.</desc>
    <!-- <g id="后台" stroke="none" stroke-width="1" fill="none" fill-rule="evenodd"> -->
        <g id="停车场管理">
            <g id="分组-11">
                <rect id="矩形" x="0" y="0" width="3" height="16"></rect>
                <path d="M0,0 L7,0 C9.209139,-4.05812251e-16 11,1.790861 11,4 L11,5 C11,7.209139 9.209139,9 7,9 L0,9 L0,0 Z M6.5,2.5 L2.5,2.5 L2.5,6.5 L6.5,6.5 C7.6045695,6.5 8.5,5.6045695 8.5,4.5 C8.5,3.3954305 7.6045695,2.5 6.5,2.5 Z" id="合并形状"></path>
                <path d="M10.8923048,9.17070571 L10.8923048,8 L12.8923048,8 L12.8923048,9.17070571 C13.2434193,9.29480686 13.5645337,9.48241617 13.8418459,9.71973143 L14.8564065,9.1339746 L15.8564065,10.8660254 L14.8422831,11.4515298 C14.875135,11.6293511 14.8923048,11.8126704 14.8923048,12 C14.8923048,12.1873296 14.875135,12.3706489 14.8422831,12.5484702 L15.8564065,13.1339746 L14.8564065,14.8660254 L13.8418459,14.2802686 C13.5645337,14.5175838 13.2434193,14.7051931 12.8923048,14.8292943 L12.8923048,16 L10.8923048,16 L10.8923048,14.8292943 C10.5411904,14.7051931 10.220076,14.5175838 9.94276383,14.2802686 L8.92820323,14.8660254 L7.92820323,13.1339746 L8.94232662,12.5484702 C8.90947473,12.3706489 8.89230485,12.1873296 8.89230485,12 C8.89230485,11.8126704 8.90947473,11.6293511 8.94232662,11.4515298 L7.92820323,10.8660254 L8.92820323,9.1339746 L9.94276383,9.71973143 C10.220076,9.48241617 10.5411904,9.29480686 10.8923048,9.17070571 Z M11.8923048,13 C12.4445896,13 12.8923048,12.5522847 12.8923048,12 C12.8923048,11.4477153 12.4445896,11 11.8923048,11 C11.3400201,11 10.8923048,11.4477153 10.8923048,12 C10.8923048,12.5522847 11.3400201,13 11.8923048,13 Z" id="合并形状"></path>
            </g>
        </g>
    <!-- </g> -->
</svg>