<?xml version="1.0" encoding="UTF-8"?>
<svg width="16px" height="16px" class="icon" viewBox="0 0 16 16" version="1.1" xmlns="http://www.w3.org/2000/svg" xmlns:xlink="http://www.w3.org/1999/xlink">
    <!-- Generator: Sketch 52.2 (67145) - http://www.bohemiancoding.com/sketch -->
    <title>人脸大数据视窗</title>
    <desc>Created with Sketch.</desc>
    <!-- <g id="后台" stroke="none" stroke-width="1" fill="none" fill-rule="evenodd"> -->
        <g id="人脸大数据视窗">
            <path d="M15,4 L1,4 L1,2 C1,1.44771525 1.44771525,1 2,1 L14,1 C14.5522847,1 15,1.44771525 15,2 L15,4 Z M15,5 L15,14 C15,14.5522847 14.5522847,15 14,15 L2,15 C1.44771525,15 1,14.5522847 1,14 L1,5 L15,5 Z M5.99993651,9.5 C6.8263105,9.5 7.5,8.82626077 7.5,7.99993575 C7.5,7.17366661 6.82633424,6.5 5.99993651,6.5 C5.17358064,6.5 4.5,7.17362473 4.5,7.99993575 C4.5,8.8263738 5.17354704,9.5 5.99993651,9.5 Z M8.99927474,12 C8.99927474,10.8298389 8,10 5.99992857,10 C3.99985715,10 3,10.8298389 3,12 C3,13.1702889 8.99927474,13.1701867 8.99927474,12 Z M10.5,7 C10.2238576,7 10,7.22385763 10,7.5 L10,8.5 C10,8.77614237 10.2238576,9 10.5,9 L12.5,9 C12.7761424,9 13,8.77614237 13,8.5 L13,7.5 C13,7.22385763 12.7761424,7 12.5,7 L10.5,7 Z M10.5,10 C10.2238576,10 10,10.2238576 10,10.5 L10,12.5 C10,12.7761424 10.2238576,13 10.5,13 L12.5,13 C12.7761424,13 13,12.7761424 13,12.5 L13,10.5 C13,10.2238576 12.7761424,10 12.5,10 L10.5,10 Z M9,2 L9,3 L11,3 L11,2 L9,2 Z M12,2 L12,3 L13,3 L13,2 L12,2 Z" id="合并形状"></path>
        </g>
    <!-- </g> -->
</svg>