<?xml version="1.0" encoding="UTF-8"?>
<svg width="16px" height="16px" class="icon" viewBox="0 0 16 16" version="1.1" xmlns="http://www.w3.org/2000/svg" xmlns:xlink="http://www.w3.org/1999/xlink">
    <!-- Generator: Sketch 52.2 (67145) - http://www.bohemiancoding.com/sketch -->
    <title>人行记录</title>
    <desc>Created with Sketch.</desc>
    <!-- <g id="后台" stroke="none" stroke-width="1" fill="none" fill-rule="evenodd"> -->
        <g id="人行记录">
            <path d="M2.84835871,9.34264037 L2.11197941,11.4420771 C2.04534518,11.6020383 1.95403643,11.7527221 1.84202451,11.8886599 L0.151982532,14.1433838 C0.00536769585,14.3553633 -0.0373407112,14.6166594 0.0333299837,14.8606702 C0.0933561291,15.1100521 0.258037403,15.3260681 0.490101606,15.4580671 C0.674086299,15.5779891 0.892022873,15.6420518 1.11533055,15.6413031 C1.19072131,15.6493109 1.26741415,15.6493109 1.34332574,15.6413031 C1.61910746,15.5888941 1.86070944,15.424636 2.0107748,15.1873635 L3.60797808,12.956012 C3.8030305,12.6672419 3.97012064,12.3605357 4.10667686,12.0399622 L4.46300993,11.063965 L4.33634956,11 C3.62888084,10.6562093 3.13288389,10.1037561 2.84835871,9.34264037 Z" id="路径"></path>
            <path d="M6.03411287,3.49993161 C6.98909845,3.50836955 7.77131162,2.7349763 7.78405347,1.76916611 C7.78405347,0.792306976 7.00056314,-4.5519144e-14 6.03411287,-4.5519144e-14 C5.0675438,-4.5519144e-14 4.28405347,0.792306976 4.28405347,1.76916611 C4.2962607,2.73424395 5.0790382,3.50836955 6.03411287,3.49993161 Z" id="路径"></path>
            <path d="M7.99336977,11.3547071 L6.51465628,8.81271053 L6.4640377,8.73259972 L6.32009214,8.53399911 L6.43008582,8.01596436 L6.90336138,6.21527766 C7.18070561,5.05866759 6.43135536,3.9039781 5.2133194,3.60934868 C5.02705606,3.55251265 4.83350103,3.52311806 4.63870903,3.52197874 C4.2730183,3.47442006 3.90374682,3.57793587 3.61598591,3.80873054 L1.70673782,5.5220473 C1.60003191,5.63532874 1.5093742,5.76198912 1.43600168,5.89662477 L0.33801801,8.08005953 C0.231312096,8.27931117 0.217347229,8.51137538 0.30074581,8.72065308 C0.384665226,8.92996334 0.557354326,9.09604435 0.777341685,9.17931273 C1.22939325,9.38341464 1.77132127,9.22332322 2.01940112,8.81271053 L3.13470253,6.60603354 L3.4560247,6.3193143 L3.17666224,7.45798814 C2.89804847,8.42999503 3.03336772,9.84868237 5.2133194,10.9559434 L5.28073488,10.9960151 L5.93138704,12.1032761 C6.25804776,13.1099836 6.48731248,14.1419841 6.61599109,15.1873635 C6.65274246,15.4453392 6.80736512,15.6753851 7.03868062,15.8166614 C7.22875257,15.9366812 7.45206024,16.0006461 7.68067392,15.9999951 L7.81609082,15.9999951 C8.08731525,15.9726838 8.33949667,15.8480417 8.52602043,15.6493109 C8.71674342,15.4253847 8.79610553,15.1359636 8.74600779,14.8526624 L8.33135864,12.1593634 C8.25948351,11.8758018 8.14555102,11.6045773 7.99336977,11.3547071 Z" id="路径"></path>
            <path d="M9.26072222,7.92797593 C9.1873497,7.72387402 9.03539631,7.55756513 8.83868373,7.46599597 L7.35052566,6.6687715 L6.9105835,8.35803223 L8.01000392,9.01196218 C8.14008226,9.08800398 8.28874789,9.12934519 8.44131976,9.13201447 C8.732401,9.11153917 8.99929599,8.96313397 9.17006451,8.72664267 C9.33474579,8.49330894 9.37732398,8.20261833 9.28604779,7.93598376 L9.26072222,7.92797593 Z" id="路径"></path>
            <rect id="矩形" x="10" y="4" width="4" height="1" rx="0.5"></rect>
            <rect id="矩形-copy-82" x="10" y="10" width="4" height="1" rx="0.5"></rect>
            <rect id="矩形-copy-80" x="10" y="7" width="6" height="1" rx="0.5"></rect>
            <rect id="矩形-copy-81" x="10" y="13" width="6" height="1" rx="0.5"></rect>
        </g>
    <!-- </g> -->
</svg>