<?xml version="1.0" encoding="UTF-8"?>
<svg width="16px" height="16px" class="icon" viewBox="0 0 16 16" version="1.1" xmlns="http://www.w3.org/2000/svg" xmlns:xlink="http://www.w3.org/1999/xlink">
    <!-- Generator: Sketch 52.2 (67145) - http://www.bohemiancoding.com/sketch -->
    <title>实用警力</title>
    <desc>Created with Sketch.</desc>
    <!-- <g id="后台" stroke="none" stroke-width="1" fill="none" fill-rule="evenodd"> -->
        <g id="实用警力">
            <path d="M14.5598909,1.92057327 L14.6454339,2 L14.9245404,5.02123706 C15.2555297,8.60408879 13.6361882,12.0885358 10.6841195,14.1456383 L8.02299643,16 L5.31242808,14.1111832 C2.38682628,12.0725236 0.768150602,8.6302436 1.06410973,5.07669796 L1.32035431,2 L1.41682529,1.91364214 C1.60132824,1.96979689 1.79713696,2 2,2 C3.1045695,2 4,1.1045695 4,3.42934136e-15 L12,-8.39131262e-13 C12,1.1045695 12.8954305,2 14,2 C14.1943512,2 14.3822277,1.97227827 14.5598909,1.92057327 Z M6.49239674,12.0750379 L8,11.2824439 L9.50760326,12.0750379 L9.21967666,10.396297 L10.4393533,9.20740606 L8.75380163,8.96248106 L8,7.43511213 L7.24619837,8.96248106 L5.56064668,9.20740606 L6.78032334,10.396297 L6.49239674,12.0750379 Z M5.5,3 C5.22385763,3 5,3.22385763 5,3.5 C5,3.77614237 5.22385763,4 5.5,4 L10.5,4 C10.7761424,4 11,3.77614237 11,3.5 C11,3.22385763 10.7761424,3 10.5,3 L5.5,3 Z M5.5,5 C5.22385763,5 5,5.22385763 5,5.5 C5,5.77614237 5.22385763,6 5.5,6 L10.5,6 C10.7761424,6 11,5.77614237 11,5.5 C11,5.22385763 10.7761424,5 10.5,5 L5.5,5 Z" id="合并形状"></path>
        </g>
    <!-- </g> -->
</svg>