<?xml version="1.0" encoding="UTF-8"?>
<svg width="16px" height="16px" class="icon" viewBox="0 0 16 16" version="1.1" xmlns="http://www.w3.org/2000/svg" xmlns:xlink="http://www.w3.org/1999/xlink">
    <!-- Generator: Sketch 52.2 (67145) - http://www.bohemiancoding.com/sketch -->
    <title>所属小区管理</title>
    <desc>Created with Sketch.</desc>
    <!-- <g id="后台" stroke="none" stroke-width="1" fill="none" fill-rule="evenodd"> -->
        <g id="所属小区管理">
            <g id="分组-11-copy-2">
                <path d="M6.26756439,12 C6.61337381,12.5978014 7.25971764,13 8,13 C8.74028236,13 9.38662619,12.5978014 9.73243561,12 L15,12 C15.5522847,12 16,12.4477153 16,13 L16,14 C16,14.5522847 15.5522847,15 15,15 L1,15 C0.44771525,15 6.76353751e-17,14.5522847 0,14 L0,13 C-6.76353751e-17,12.4477153 0.44771525,12 1,12 L6.26756439,12 Z" id="合并形状"></path>
                <path d="M5,1 L14,1 C14.5522847,1 15,1.44771525 15,2 L15,11 L4,11 L4,2 C4,1.44771525 4.44771525,1 5,1 Z M8.46410162,3.17070571 C8.11298715,3.29480686 7.79187275,3.48241617 7.5145606,3.71973143 L6.5,3.1339746 L5.5,4.8660254 L6.51412339,5.45152981 C6.4812715,5.62935105 6.46410162,5.81267041 6.46410162,6 C6.46410162,6.18732959 6.4812715,6.37064895 6.51412339,6.54847019 L5.5,7.1339746 L6.5,8.8660254 L7.5145606,8.28026857 C7.79187275,8.51758383 8.11298715,8.70519314 8.46410162,8.82929429 L8.46410162,10 L10.4641016,10 L10.4641016,8.82929429 C10.8152161,8.70519314 11.1363305,8.51758383 11.4136426,8.28026857 L12.4282032,8.8660254 L13.4282032,7.1339746 L12.4140798,6.54847019 C12.4469317,6.37064895 12.4641016,6.18732959 12.4641016,6 C12.4641016,5.81267041 12.4469317,5.62935105 12.4140798,5.45152981 L13.4282032,4.8660254 L12.4282032,3.1339746 L11.4136426,3.71973143 C11.1363305,3.48241617 10.8152161,3.29480686 10.4641016,3.17070571 L10.4641016,2 L8.46410162,2 L8.46410162,3.17070571 Z M9.46410162,7 C8.91181687,7 8.46410162,6.55228475 8.46410162,6 C8.46410162,5.44771525 8.91181687,5 9.46410162,5 C10.0163864,5 10.4641016,5.44771525 10.4641016,6 C10.4641016,6.55228475 10.0163864,7 9.46410162,7 Z" id="合并形状"></path>
                <rect id="矩形-copy-95" x="7" y="10" width="2" height="2" rx="1"></rect>
                <path d="M2,4 L3,4 L3,11 L1,11 L1,5 C1,4.44771525 1.44771525,4 2,4 Z" id="矩形-copy-94"></path>
            </g>
        </g>
    <!-- </g> -->
</svg>