<?xml version="1.0" encoding="UTF-8"?>
<svg width="16px" height="14px" class="icon" viewBox="0 0 16 14" version="1.1" xmlns="http://www.w3.org/2000/svg" xmlns:xlink="http://www.w3.org/1999/xlink">
    <!-- Generator: Sketch 52.2 (67145) - http://www.bohemiancoding.com/sketch -->
    <title>警情概览</title>
    <desc>Created with Sketch.</desc>
    <g id="警情概览">
      <path d="M2,1 L14,1 C14.5522847,1 15,1.44771525 15,2 L15,12 C15,12.5522847 14.5522847,13 14,13 L2,13 C1.44771525,13 1,12.5522847 1,12 L1,2 C1,1.44771525 1.44771525,1 2,1 Z M10,10 L10,8 C10,6.8954305 9.1045695,6 8,6 C6.8954305,6 6,6.8954305 6,8 L6,10 L5.5,10 C5.22385763,10 5,10.2238576 5,10.5 C5,10.7761424 5.22385763,11 5.5,11 L10.5,11 C10.7761424,11 11,10.7761424 11,10.5 C11,10.2238576 10.7761424,10 10.5,10 L10,10 Z M8,2.5 C7.72385763,2.5 7.5,2.72385763 7.5,3 L7.5,4 C7.5,4.27614237 7.72385763,4.5 8,4.5 C8.27614237,4.5 8.5,4.27614237 8.5,4 L8.5,3 C8.5,2.72385763 8.27614237,2.5 8,2.5 Z M11.767767,3.85355339 C11.5725048,3.65829124 11.2559223,3.65829124 11.0606602,3.85355339 L10.3535534,4.56066017 C10.1582912,4.75592232 10.1582912,5.07250481 10.3535534,5.26776695 C10.5488155,5.4630291 10.865398,5.4630291 11.0606602,5.26776695 L11.767767,4.56066017 C11.9630291,4.36539803 11.9630291,4.04881554 11.767767,3.85355339 Z M4.35355339,3.85355339 C4.15829124,4.04881554 4.15829124,4.36539803 4.35355339,4.56066017 L5.06066017,5.26776695 C5.25592232,5.4630291 5.57250481,5.4630291 5.76776695,5.26776695 C5.9630291,5.07250481 5.9630291,4.75592232 5.76776695,4.56066017 L5.06066017,3.85355339 C4.86539803,3.65829124 4.54881554,3.65829124 4.35355339,3.85355339 Z" id="合并形状"></path>
      <rect id="矩形-copy-146" x="0" y="14" width="16" height="1" rx="0.5"></rect>
    </g>
</svg>