<?xml version="1.0" encoding="UTF-8"?>
<svg width="16px" height="16px" class="icon" viewBox="0 0 16 16" version="1.1" xmlns="http://www.w3.org/2000/svg" xmlns:xlink="http://www.w3.org/1999/xlink">
    <!-- Generator: Sketch 52.2 (67145) - http://www.bohemiancoding.com/sketch -->
    <title>标准地址</title>
    <desc>Created with Sketch.</desc>
    <!-- <g id="后台" stroke="none" stroke-width="1" fill="none" fill-rule="evenodd"> -->
        <g id="标准地址">
            <path d="M2,1 L14,1 C14.5522847,1 15,1.44771525 15,2 L15,14 C15,14.5522847 14.5522847,15 14,15 L2,15 C1.44771525,15 1,14.5522847 1,14 L1,2 C1,1.44771525 1.44771525,1 2,1 Z M8,13 C8.5948699,13 12,8.82106781 12,6.75 C12,4.67893219 10.209139,3 8,3 C5.790861,3 4,4.67893219 4,6.75 C4,8.82106781 7.4051301,13 8,13 Z M4.5,13 C4.22385763,13 4,13.2238576 4,13.5 C4,13.7761424 4.22385763,14 4.5,14 L11.5,14 C11.7761424,14 12,13.7761424 12,13.5 C12,13.2238576 11.7761424,13 11.5,13 L4.5,13 Z" id="合并形状"></path>
            <rect id="矩形" x="6" y="5" width="4" height="4" rx="2"></rect>
        </g>
    <!-- </g> -->
</svg>