<?xml version="1.0" encoding="UTF-8"?>
<svg width="16px" height="16px" class="icon" viewBox="0 0 16 16" version="1.1" xmlns="http://www.w3.org/2000/svg" xmlns:xlink="http://www.w3.org/1999/xlink">
    <!-- Generator: Sketch 52.2 (67145) - http://www.bohemiancoding.com/sketch -->
    <title>超级档案</title>
    <desc>Created with Sketch.</desc>
    <!-- <g id="后台" stroke="none" stroke-width="1" fill="none" fill-rule="evenodd"> -->
        <g id="超级档案">
            <g id="矩形-+-矩形-copy-33-+-合并形状-+-路径-+-路径-+-路径-+-路径-Mask">
                <path d="M1.5,0 L3.5,0 C3.77614237,-5.07265313e-17 4,0.223857625 4,0.5 L4,14.5 C4,14.7761424 3.77614237,15 3.5,15 L1.5,15 C1.22385763,15 1,14.7761424 1,14.5 L1,0.5 C1,0.223857625 1.22385763,5.07265313e-17 1.5,0 Z M2.5,9 C2.77660417,9 3,8.75579118 3,8.4534168 L3,2.5465832 C3,2.24420882 2.77660417,2 2.5,2 C2.22329167,2 2,2.24420882 2,2.5465832 L2,8.4534168 C2,8.75579118 2.22329167,9 2.5,9 Z M2.5,13 C2.77660417,13 3,12.7080811 3,12.3513514 L3,11.6486486 C3,11.2898108 2.77660417,11 2.5,11 C2.22329167,11 2,11.2898108 2,11.6486486 L2,12.3513514 C2,12.7102973 2.22329167,13 2.5,13 Z" id="合并形状"></path>
                <path d="M6.5,0 L8.5,0 C8.77614237,-5.07265313e-17 9,0.223857625 9,0.5 L9,14.5 C9,14.7761424 8.77614237,15 8.5,15 L6.5,15 C6.22385763,15 6,14.7761424 6,14.5 L6,0.5 C6,0.223857625 6.22385763,5.07265313e-17 6.5,0 Z M7.5,9 C7.77497917,9 8,8.75579118 8,8.4534168 L8,2.5465832 C8,2.24420882 7.77660417,2 7.5,2 C7.22329167,2 7,2.24420882 7,2.5465832 L7,8.4534168 C7,8.75579118 7.22329167,9 7.5,9 Z M7.5,13 C7.77497917,13 8,12.7080811 8,12.3513514 L8,11.6486486 C8,11.2898108 7.77660417,11 7.5,11 C7.22329167,11 7,11.2898108 7,11.6486486 L7,12.3513514 C7,12.7102973 7.22329167,13 7.5,13 Z" id="合并形状"></path>
                <path d="M11.9035082,0.148417369 L13.9035082,0.148417369 C14.1796506,0.148417369 14.4035082,0.372274994 14.4035082,0.648417369 L14.4035082,14.6484174 C14.4035082,14.9245597 14.1796506,15.1484174 13.9035082,15.1484174 L11.9035082,15.1484174 C11.6273659,15.1484174 11.4035082,14.9245597 11.4035082,14.6484174 L11.4035082,0.648417369 C11.4035082,0.372274994 11.6273659,0.148417369 11.9035082,0.148417369 Z M12.9035082,9.14841737 C13.1784874,9.14841737 13.4035082,8.90420855 13.4035082,8.60183416 L13.4035082,2.69500057 C13.4035082,2.39262619 13.1801124,2.14841737 12.9035082,2.14841737 C12.6267999,2.14841737 12.4035082,2.39262619 12.4035082,2.69500057 L12.4035082,8.60183416 C12.4035082,8.90420855 12.6267999,9.14841737 12.9035082,9.14841737 Z M12.9035082,13.1484174 C13.1784874,13.1484174 13.4035082,12.8564985 13.4035082,12.4997687 L13.4035082,11.797066 C13.4035082,11.4382282 13.1801124,11.1484174 12.9035082,11.1484174 C12.6267999,11.1484174 12.4035082,11.4382282 12.4035082,11.797066 L12.4035082,12.4997687 C12.4035082,12.8587147 12.6267999,13.1484174 12.9035082,13.1484174 Z" id="合并形状" transform="translate(12.903508, 7.648417) rotate(-11.000000) translate(-12.903508, -7.648417) "></path>
            </g>
        </g>
    <!-- </g> -->
</svg>