<?xml version="1.0" encoding="UTF-8"?>
<svg width="16px" height="16px" class="icon" viewBox="0 0 16 16" version="1.1" xmlns="http://www.w3.org/2000/svg" xmlns:xlink="http://www.w3.org/1999/xlink">
    <title>布控任务</title>
    <desc>Created with Sketch.</desc>
    <g id="布控任务">
        <path d="M11,12 L11,8.5 C11,7.11928813 9.88071187,6 8.5,6 C7.11928813,6 6,7.11928813 6,8.5 L6,12 L5,12 L5,13 L6,13 L11,13 L12,13 L12,12 L11,12 Z M3,1 L14,1 C14.5522847,1 15,1.44771525 15,2 L15,14 C15,14.5522847 14.5522847,15 14,15 L3,15 C2.44771525,15 2,14.5522847 2,14 L2,2 C2,1.44771525 2.44771525,1 3,1 Z M8,3 L8,5 L9,5 L9,3 L8,3 Z M11.4142136,4 L10,5.41421356 L10.7071068,6.12132034 L12.1213203,4.70710678 L11.4142136,4 Z M5.70710678,4 L5,4.70710678 L6.41421356,6.12132034 L7.12132034,5.41421356 L5.70710678,4 Z" id="合并形状"></path>
        <rect id="矩形" x="1" y="3" width="2" height="2" rx="1"></rect>
        <rect id="矩形-copy-13" x="1" y="7" width="2" height="2" rx="1"></rect>
        <rect id="矩形-copy-14" x="1" y="11" width="2" height="2" rx="1"></rect>
    </g>
</svg>