<?xml version="1.0" encoding="UTF-8"?>
<svg width="16px" height="16px" class="icon" viewBox="0 0 16 16" version="1.1" xmlns="http://www.w3.org/2000/svg" xmlns:xlink="http://www.w3.org/1999/xlink">
    <!-- Generator: Sketch 52.2 (67145) - http://www.bohemiancoding.com/sketch -->
    <title>同行分析</title>
    <desc>Created with Sketch.</desc>
    <!-- <g id="后台" stroke="none" stroke-width="1" fill="none" fill-rule="evenodd"> -->
        <g id="同行分析">
            <path d="M5,3.99963381 C3.7855533,4.91184014 3,6.36418217 3,8 C3,9.63581783 3.7855533,11.0881599 5,12.0003662 L5,14 C5,14.5522847 4.55228475,15 4,15 L2,15 C1.44771525,15 1,14.5522847 1,14 L1,3 C1,2.44771525 1.44771525,2 2,2 L4,2 C4.55228475,2 5,2.44771525 5,3 L5,3.99963381 Z" id="合并形状"></path>
            <path d="M11,12.0003662 C12.2144467,11.0881599 13,9.63581783 13,8 C13,6.36418217 12.2144467,4.91184014 11,3.99963381 L11,3 C11,2.44771525 11.4477153,2 12,2 L14,2 C14.5522847,2 15,2.44771525 15,3 L15,14 C15,14.5522847 14.5522847,15 14,15 L12,15 C11.4477153,15 11,14.5522847 11,14 L11,12.0003662 Z" id="合并形状"></path>
            <rect id="矩形-copy-59" x="0" y="14" width="16" height="1" rx="0.5"></rect>
            <path d="M8,4 C10.209139,4 12,5.790861 12,8 C12,10.209139 10.209139,12 8,12 C5.790861,12 4,10.209139 4,8 C4,5.790861 5.790861,4 8,4 Z M5.03,6.898 L6.176,10 L6.86,10 L8.006,6.898 L7.262,6.898 L6.518,9.148 L5.774,6.898 L5.03,6.898 Z M9.566,6.814 C9.182,6.814 8.876,6.892 8.642,7.06 C8.402,7.216 8.288,7.438 8.288,7.726 C8.288,7.996 8.408,8.206 8.648,8.356 C8.798,8.452 9.056,8.542 9.422,8.626 C9.734,8.698 9.938,8.752 10.034,8.8 C10.214,8.884 10.304,8.998 10.304,9.142 C10.304,9.394 10.064,9.526 9.584,9.526 C9.356,9.526 9.194,9.484 9.092,9.412 C8.99,9.328 8.918,9.19 8.882,8.992 L8.216,8.992 C8.282,9.718 8.744,10.084 9.608,10.084 C10.538,10.084 11.006,9.754 11.006,9.094 C11.006,8.818 10.88,8.596 10.634,8.44 C10.466,8.326 10.202,8.23 9.854,8.146 C9.542,8.068 9.338,8.008 9.236,7.966 C9.068,7.894 8.99,7.804 8.99,7.708 C8.99,7.588 9.038,7.504 9.146,7.45 C9.236,7.396 9.374,7.372 9.554,7.372 C9.764,7.372 9.92,7.402 10.022,7.468 C10.118,7.528 10.19,7.642 10.238,7.798 L10.904,7.798 C10.832,7.138 10.382,6.814 9.566,6.814 Z" id="合并形状" fill-rule="nonzero"></path>
        </g>
    <!-- </g> -->
</svg>