<?xml version="1.0" encoding="UTF-8"?>
<svg width="16px" height="16px" class="icon" viewBox="0 0 16 16" version="1.1" xmlns="http://www.w3.org/2000/svg" xmlns:xlink="http://www.w3.org/1999/xlink">
    <!-- Generator: Sketch 52.2 (67145) - http://www.bohemiancoding.com/sketch -->
    <title>实有单位</title>
    <desc>Created with Sketch.</desc>
    <!-- <g id="后台" stroke="none" stroke-width="1" fill="none" fill-rule="evenodd"> -->
        <g id="实有房屋">
            <path d="M2,1 L14,1 C14.5522847,1 15,1.44771525 15,2 L15,14 C15,14.5522847 14.5522847,15 14,15 L2,15 C1.44771525,15 1,14.5522847 1,14 L1,2 C1,1.44771525 1.44771525,1 2,1 Z M8,13 C8.18538485,13 10,11.0319508 10,10.7439436 C10,10.4563114 8.51752022,5.199805 8.51752022,5.199805 C8.51752022,5.199805 9.36088649,3.880147 9.5016472,3.6480162 C9.64180892,3.4158854 9.6163522,3 9.22012579,3 L6.77987421,3 C6.377059,3 6.35819108,3.4080102 6.4983528,3.6480162 C6.63911351,3.880147 7.48218029,5.199805 7.48218029,5.199805 C7.48218029,5.199805 6,10.4480612 6,10.7439436 C6,11.039826 7.80832585,13 8,13 Z" id="合并形状"></path>
        </g>
    <!-- </g> -->
</svg>