<?xml version="1.0" encoding="UTF-8"?>
<svg width="16px" height="16px" class="icon" viewBox="0 0 16 16" version="1.1" xmlns="http://www.w3.org/2000/svg" xmlns:xlink="http://www.w3.org/1999/xlink">
    <!-- Generator: Sketch 52.2 (67145) - http://www.bohemiancoding.com/sketch -->
    <title>用户管理</title>
    <desc>Created with Sketch.</desc>
    <!-- <g id="后台" stroke="none" stroke-width="1" fill="none" fill-rule="evenodd"> -->
        <g id="用户管理">
            <path d="M10.9641016,2.17070571 L10.9641016,1 L12.9641016,1 L12.9641016,2.17070571 C13.3152161,2.29480686 13.6363305,2.48241617 13.9136426,2.71973143 L14.9282032,2.1339746 L15.9282032,3.8660254 L14.9140798,4.45152981 C14.9469317,4.62935105 14.9641016,4.81267041 14.9641016,5 C14.9641016,5.18732959 14.9469317,5.37064895 14.9140798,5.54847019 L15.9282032,6.1339746 L14.9282032,7.8660254 L13.9136426,7.28026857 C13.6363305,7.51758383 13.3152161,7.70519314 12.9641016,7.82929429 L12.9641016,9 L10.9641016,9 L10.9641016,7.82929429 C10.6129871,7.70519314 10.2918727,7.51758383 10.0145606,7.28026857 L9,7.8660254 L8,6.1339746 L9.01412339,5.54847019 C8.9812715,5.37064895 8.96410162,5.18732959 8.96410162,5 C8.96410162,4.81267041 8.9812715,4.62935105 9.01412339,4.45152981 L8,3.8660254 L9,2.1339746 L10.0145606,2.71973143 C10.2918727,2.48241617 10.6129871,2.29480686 10.9641016,2.17070571 Z M11.9641016,6 C12.5163864,6 12.9641016,5.55228475 12.9641016,5 C12.9641016,4.44771525 12.5163864,4 11.9641016,4 C11.4118169,4 10.9641016,4.44771525 10.9641016,5 C10.9641016,5.55228475 11.4118169,6 11.9641016,6 Z" id="合并形状"></path>
            <path d="M7.81736299,16 L1.18271243,16 C0.386194299,16 -0.197667548,14.6654913 0.0628159866,13.3829083 C0.698782318,10.2498488 2.44513797,8 4.49992106,8 C6.55468471,8 8.3010598,10.2498488 8.93723999,13.3829083 C9.19758743,14.6654913 8.61372559,16 7.81736299,16 Z" id="路径"></path>
            <circle id="椭圆形" cx="4.5" cy="4.5" r="2.5"></circle>
        </g>
    <!-- </g> -->
</svg>