<?xml version="1.0" encoding="UTF-8"?>
<svg width="16px" height="16px" class="icon" viewBox="0 0 16 16" version="1.1" xmlns="http://www.w3.org/2000/svg" xmlns:xlink="http://www.w3.org/1999/xlink">
    <!-- Generator: Sketch 52.2 (67145) - http://www.bohemiancoding.com/sketch -->
    <title>运行监控</title>
    <desc>Created with Sketch.</desc>
    <!-- <g id="后台" stroke="none" stroke-width="1" fill="none" fill-rule="evenodd"> -->
        <g id="运行监控">
            <rect id="矩形-copy-118" x="0" y="1" width="16" height="2" rx="0.5"></rect>
            <path d="M8,15 C3.581722,15 8.8817842e-16,11.418278 8.8817842e-16,7 L0,4 L16,4 L16,7 C16,11.418278 12.418278,15 8,15 Z M8,7 C6.34314575,7 5,8.34314575 5,10 C5,11.6568542 6.34314575,13 8,13 C9.65685425,13 11,11.6568542 11,10 C11,8.34314575 9.65685425,7 8,7 Z M13,6 C12.4477153,6 12,6.44771525 12,7 C12,7.55228475 12.4477153,8 13,8 C13.5522847,8 14,7.55228475 14,7 C14,6.44771525 13.5522847,6 13,6 Z" id="合并形状"></path>
        </g>
    <!-- </g> -->
</svg>