<?xml version="1.0" standalone="no"?><!DOCTYPE svg PUBLIC "-//W3C//DTD SVG 1.1//EN" "http://www.w3.org/Graphics/SVG/1.1/DTD/svg11.dtd"><svg t="1553071470015" class="icon" style="" viewBox="0 0 1025 1024" version="1.1" xmlns="http://www.w3.org/2000/svg" p-id="3382" xmlns:xlink="http://www.w3.org/1999/xlink" width="200.1953125" height="200"><defs><style type="text/css"></style></defs><path d="M1013.413888 576.08192c-4.184064-56.025088-40.333312-105.51296-92.121088-128.58368l-46.526464-218.732544c-17.027072-79.990784-97.370112-145.047552-179.1488-145.047552L329.064448 83.718144c-81.778688 0-162.142208 65.056768-179.1488 145.047552L103.368704 447.49824C51.57888 470.591488 15.454208 520.056832 11.268096 576.08192l-10.541056 140.314624c-4.51584 60.28288 29.775872 114.638848 83.58912 136.630272 12.374016 48.447488 56.072192 83.802112 107.814912 83.802112 48.074752 0 88.999936-30.017536 104.568832-73.312256L727.98208 863.516672c15.568896 43.29472 56.49408 73.312256 104.546304 73.312256 51.744768 0 95.485952-35.354624 107.859968-83.802112 53.813248-21.991424 88.082432-76.324864 83.539968-136.630272L1013.413888 576.08192 1013.413888 576.08192zM905.392128 798.650368c-13.6192 3.1744-23.472128 14.977024-24.180736 28.94848-1.29024 26.13248-22.673408 46.614528-48.683008 46.614528-25.356288 0-46.194688-19.234816-48.453632-44.752896-1.409024-16.162816-14.956544-28.52864-31.184896-28.52864L271.771648 800.93184c-16.2304 0-29.753344 12.367872-31.19104 28.52864-2.256896 25.51808-23.07072 44.752896-48.449536 44.752896-25.987072 0-47.368192-20.45952-48.658432-46.614528-0.681984-13.971456-10.563584-25.77408-24.154112-28.94848-35.895296-8.327168-58.966016-40.220672-56.1664-77.570048l10.534912-140.296192c2.727936-36.4544 30.222336-69.545984 66.889728-80.437248 11.95008-3.571712 20.649984-13.8752 22.153216-26.294272 0.190464-1.787904 0.329728-3.600384 0.468992-5.36576 0.073728-0.917504 0.073728-1.855488 0.239616-2.705408l47.693824-224.186368c11.010048-51.767296 65.011712-95.463424 117.929984-95.463424l366.553088 0c52.897792 0 106.899456 43.698176 117.932032 95.463424l47.671296 224.165888c0.190464 0.944128 0.190464 1.861632 0.264192 2.777088 0.116736 1.738752 0.258048 3.4816 0.468992 5.24288 1.460224 12.423168 10.182656 22.790144 22.181888 26.368 36.63872 10.891264 64.135168 43.982848 66.861056 80.437248l10.518528 140.296192C964.329472 758.407168 941.238272 790.321152 905.392128 798.650368L905.392128 798.650368zM271.2064 477.04064l482.246656 0c11.618304 0 21.61664-4.302848 27.754496-11.71456 6.633472-7.643136 9.310208-18.112512 7.573504-29.472768-0.139264-0.749568-0.280576-1.503232-0.448512-2.2528l-37.890048-164.642816c-4.75136-25.964544-30.437376-47.64672-56.868864-47.64672L331.132928 221.310976c-26.435584 0-52.164608 21.684224-56.91392 47.64672l-37.869568 164.642816c-0.190464 0.74752-0.329728 1.501184-0.448512 2.2528-1.759232 11.360256 0.917504 21.829632 7.176192 29.026304C249.616384 472.731648 259.588096 477.04064 271.2064 477.04064L271.2064 477.04064zM335.017984 283.920384l354.654208 0 30.005248 130.510848L304.979968 414.431232 335.017984 283.920384 335.017984 283.920384zM233.504768 584.26368c-39.063552 0-70.746112 31.68256-70.746112 70.746112 0 39.094272 31.68256 70.74816 70.746112 70.74816 39.0656 0 70.725632-31.653888 70.725632-70.74816C304.2304 615.94624 272.570368 584.26368 233.504768 584.26368L233.504768 584.26368zM791.177216 584.26368c-39.063552 0-70.746112 31.68256-70.746112 70.746112 0 39.094272 31.68256 70.74816 70.746112 70.74816 39.094272 0 70.74816-31.653888 70.74816-70.74816C861.925376 615.94624 830.26944 584.26368 791.177216 584.26368L791.177216 584.26368zM791.177216 584.26368" p-id="3383"></path></svg>