<?xml version="1.0" encoding="UTF-8"?>
<!DOCTYPE svg PUBLIC "-//W3C//DTD SVG 1.1//EN" "http://www.w3.org/Graphics/SVG/1.1/DTD/svg11.dtd">
<svg t="1566525504151" class="icon" viewBox="0 0 1068 1024" version="1.1" xmlns="http://www.w3.org/2000/svg" p-id="845" xmlns:xlink="http://www.w3.org/1999/xlink" width="208.59375" height="200">
<defs>
<style type="text/css">
</style>
</defs>

<g id="数据查看">
    <path d="M734.332523 467.302514a267.030008 267.030008 0 1 1 0 534.060017 267.030008 267.030008 0 0 1 0-534.060017z m-133.515004 277.844724c0-86.985025 33.378751-130.577674 105.27658-141.726177a33.378751 33.378751 0 0 0-10.280655-65.956412C589.669016 553.886995 534.060017 626.719429 534.060017 745.013723a33.378751 33.378751 0 1 0 66.757502 0z" p-id="846"></path>
    <path d="M828.750317 734.340952m47.204682 47.204682l141.614047 141.614048q47.204682 47.204682 0 94.409364l0 0q-47.204682 47.204682-94.409364 0l-141.614048-141.614047q-47.204682-47.204682 0-94.409365l0 0q47.204682-47.204682 94.409365 0Z" p-id="847"></path>
    <path d="M66.757502 867.847527V608.160844L200.272506 534.060017l66.757502-267.030009 133.515004 133.515004 74.83516-267.030008H667.575021l133.515004 133.515004 200.272506-133.515004" p-id="848"></path>
</g>

</svg>