<?xml version="1.0" encoding="UTF-8"?>
<svg width="16px" height="16px" class="icon" viewBox="0 0 16 16" version="1.1" xmlns="http://www.w3.org/2000/svg" xmlns:xlink="http://www.w3.org/1999/xlink">
    <title>调试工具</title>
    <desc>Created with Sketch.</desc>
    <g id="调试工具">
        <circle id="椭圆形" stroke="#B4BFCC" cx="10.5" cy="6" r="1.5"></circle>
        <circle id="椭圆形-copy-11" stroke="#B4BFCC" cx="6" cy="2.5" r="1.5"></circle>
        <rect id="矩形" stroke="#B4BFCC" x="1.5" y="6" width="5" height="1" rx="0.5"></rect>
        <rect id="矩形-copy-144" stroke="#B4BFCC" x="9.5" y="2.5" width="5" height="1" rx="0.5"></rect>
        <rect id="矩形-copy-143" stroke="#B4BFCC" x="13.5" y="6" width="1" height="1" rx="0.5"></rect>
        <rect id="矩形-copy-145" stroke="#B4BFCC" x="1.5" y="2.5" width="1" height="1" rx="0.5"></rect>
        <path d="M0.5,14.2317871 L1.92895733,12.8028298 C2.19498452,13.221886 2.66314036,13.5 3.19625319,13.5 C4.02468031,13.5 4.69625319,12.8284271 4.69625319,12 C4.69625319,11.1715729 4.02468031,10.5 3.19625319,10.5 C2.66314036,10.5 2.19498452,10.778114 1.92895733,11.1971702 L0.5,9.76821291 C1.14198691,8.9934894 2.11148974,8.5 3.19625319,8.5 C5.12924981,8.5 6.69625319,10.0670034 6.69625319,12 C6.69625319,13.9329966 5.12924981,15.5 3.19625319,15.5 C2.11148974,15.5 1.14198691,15.0065106 0.5,14.2317871 Z" id="合并形状" fill="#B4BFCC" fill-rule="nonzero"></path>
        <path d="M9.19625319,14.2317871 L10.6252105,12.8028298 C10.8912377,13.221886 11.3593935,13.5 11.8925064,13.5 C12.7209335,13.5 13.3925064,12.8284271 13.3925064,12 C13.3925064,11.1715729 12.7209335,10.5 11.8925064,10.5 C11.3593935,10.5 10.8912377,10.778114 10.6252105,11.1971702 L9.19625319,9.76821291 C9.8382401,8.9934894 10.8077429,8.5 11.8925064,8.5 C13.825503,8.5 15.3925064,10.0670034 15.3925064,12 C15.3925064,13.9329966 13.825503,15.5 11.8925064,15.5 C10.8077429,15.5 9.8382401,15.0065106 9.19625319,14.2317871 Z" id="合并形状-copy-7" fill="#B4BFCC" fill-rule="nonzero" transform="translate(12.294380, 12.000000) scale(-1, 1) translate(-12.294380, -12.000000) "></path>
        <rect id="矩形" stroke="#B4BFCC" fill="#B4BFCC" x="5.5" y="11.5" width="5" height="1" rx="0.5"></rect>
    </g>
</svg>