<?xml version="1.0" encoding="UTF-8"?>
<svg width="14px" height="16px" class="icon" viewBox="0 0 14 16" version="1.1" xmlns="http://www.w3.org/2000/svg" xmlns:xlink="http://www.w3.org/1999/xlink">
    <title>导出记录</title>
    <desc>Created with Sketch.</desc>
    <g id="导出记录">
        <path d="M9.77817459,4 L4,4 C3.44771525,4 3,4.44771525 3,5 C3,5.55228475 3.44771525,6 4,6 L9.70710678,6 L9.32842712,6.37867966 C8.93790283,6.76920395 8.93790283,7.40236893 9.32842712,7.79289322 C9.71895142,8.18341751 10.3521164,8.18341751 10.7426407,7.79289322 L12.863961,5.67157288 C13.2544853,5.28104858 13.2544853,4.6478836 12.863961,4.25735931 L10.7426407,2.13603897 C10.3521164,1.74551468 9.71895142,1.74551468 9.32842712,2.13603897 C8.93790283,2.52656326 8.93790283,3.15972824 9.32842712,3.55025253 L9.77817459,4 Z M3,0 L13,0 C14.1045695,-2.02906125e-16 15,0.8954305 15,2 L15,14 C15,15.1045695 14.1045695,16 13,16 L3,16 C1.8954305,16 1,15.1045695 1,14 L1,2 C1,0.8954305 1.8954305,2.02906125e-16 3,0 Z M3.5,10 C3.22385763,10 3,10.2238576 3,10.5 C3,10.7761424 3.22385763,11 3.5,11 L12.5,11 C12.7761424,11 13,10.7761424 13,10.5 C13,10.2238576 12.7761424,10 12.5,10 L3.5,10 Z M3.5,13 C3.22385763,13 3,13.2238576 3,13.5 C3,13.7761424 3.22385763,14 3.5,14 L12.5,14 C12.7761424,14 13,13.7761424 13,13.5 C13,13.2238576 12.7761424,13 12.5,13 L3.5,13 Z" id="合并形状"></path>
    </g>
</svg>