<?xml version="1.0" standalone="no"?><!DOCTYPE svg PUBLIC "-//W3C//DTD SVG 1.1//EN" "http://www.w3.org/Graphics/SVG/1.1/DTD/svg11.dtd"><svg t="1559196556993" class="icon" style="" viewBox="0 0 1024 1024" version="1.1" xmlns="http://www.w3.org/2000/svg" p-id="6456" xmlns:xlink="http://www.w3.org/1999/xlink" width="64" height="64"><defs><style type="text/css"></style></defs><path d="M153.6 576.170667A101.376 101.376 0 0 0 184.490667 648.533333l146.432 142.506667C409.6 875.690667 487.594667 921.6 552.96 921.6h69.12A249.514667 249.514667 0 0 0 870.4 671.061333V300.202667a83.456 83.456 0 0 0-83.114667-83.797334 81.92 81.92 0 0 0-34.133333 7.168 85.333333 85.333333 0 0 0-85.333333-79.701333h-5.632a85.333333 85.333333 0 0 0-42.325334 11.776A85.333333 85.333333 0 0 0 541.354667 102.4h-4.778667a85.333333 85.333333 0 0 0-79.36 53.248 85.333333 85.333333 0 0 0-42.325333-11.776H409.6a86.528 86.528 0 0 0-85.333333 86.698667v290.133333l-19.285334-18.773333a85.333333 85.333333 0 0 0-119.466666 0A101.376 101.376 0 0 0 153.6 576.170667z m50.346667 0a51.2 51.2 0 0 1 15.36-36.693334 35.328 35.328 0 0 1 49.834666 0l44.714667 43.690667a35.157333 35.157333 0 0 0 38.4 7.168 35.498667 35.498667 0 0 0 21.504-32.768V230.741333a35.84 35.84 0 0 1 35.84-36.010666h5.632a35.84 35.84 0 0 1 35.669333 36.010666v187.733334a25.088 25.088 0 1 0 50.346667 0V189.098667A35.84 35.84 0 0 1 536.576 153.6h4.778667a35.84 35.84 0 0 1 35.669333 36.010667V418.133333a25.088 25.088 0 1 0 50.346667 0v-187.733333a35.84 35.84 0 0 1 35.669333-36.010667h5.632a35.84 35.84 0 0 1 35.669333 36.010667v187.733333a25.088 25.088 0 1 0 50.346667 0v-117.930666a32.768 32.768 0 1 1 65.536 0v370.858666A198.997333 198.997333 0 0 1 622.250667 870.4h-62.976c-50.346667 3.754667-122.197333-39.082667-192.512-114.517333l-147.285334-143.189334a51.2 51.2 0 0 1-15.530666-36.693333z" p-id="6457" fill="#ffffff"></path></svg>