<?xml version="1.0" encoding="UTF-8"?>
<svg width="16px" height="16px" class="icon" viewBox="0 0 16 16" version="1.1" xmlns="http://www.w3.org/2000/svg" xmlns:xlink="http://www.w3.org/1999/xlink">
    <title>智能分析 copy</title>
    <desc>Created with Sketch.</desc>
    <g id="智能分析-copy">
        <path d="M8.29277728,4.39045206 C8.56596732,4.7602114 9.00498085,5 9.5,5 C10.3284271,5 11,4.32842712 11,3.5 C11,2.67157288 10.3284271,2 9.5,2 C8.71228935,2 8.06639334,2.60718071 8.00480572,3.37904841 L5.56854403,5.01715088 L4.92059172,5.01715088 C4.71959406,4.42561312 4.15950067,4 3.5,4 C2.67157288,4 2,4.67157288 2,5.5 C2,6.32842712 2.67157288,7 3.5,7 C4.14668249,7 4.69778436,6.59077069 4.90846678,6.01715088 L5.87347562,6.01715088 L8.29277728,4.39045206 Z M4.99270546,10.3511298 C4.91797046,9.59258996 4.27818863,9 3.5,9 C2.67157288,9 2,9.67157288 2,10.5 C2,11.3284271 2.67157288,12 3.5,12 C4.00284003,12 4.44789077,11.7525746 4.72004662,11.3728295 L7.12652438,12.9909058 L9.08217157,12.9909058 C9.28550008,13.5782476 9.84349726,14 10.5,14 C11.3284271,14 12,13.3284271 12,12.5 C12,11.6715729 11.3284271,11 10.5,11 C9.85029394,11 9.29706437,11.413065 9.08860043,11.9909058 L7.43145597,11.9909058 L4.99270546,10.3511298 Z M10.4146471,7.5 C10.2087289,6.91740381 9.65310941,6.5 9,6.5 C8.17157288,6.5 7.5,7.17157288 7.5,8 C7.5,8.82842712 8.17157288,9.5 9,9.5 C9.65310941,9.5 10.2087289,9.08259619 10.4146471,8.5 L11.5853529,8.5 C11.7912711,9.08259619 12.3468906,9.5 13,9.5 C13.8284271,9.5 14.5,8.82842712 14.5,8 C14.5,7.17157288 13.8284271,6.5 13,6.5 C12.3468906,6.5 11.7912711,6.91740381 11.5853529,7.5 L10.4146471,7.5 Z M8,0 C12.418278,-8.11624501e-16 16,3.581722 16,8 C16,12.418278 12.418278,16 8,16 C3.581722,16 5.41083001e-16,12.418278 0,8 C-5.41083001e-16,3.581722 3.581722,8.11624501e-16 8,0 Z" id="合并形状"></path>
        <g id="分组-9" transform="translate(7.500000, 6.000000)"></g>
        <g id="分组-2" transform="translate(2.000000, 9.000000)">
            <g id="分组-8"></g>
        </g>
        <g id="分组-2-copy" transform="translate(6.500000, 4.500000) scale(-1, 1) translate(-6.500000, -4.500000) translate(2.000000, 2.000000)">
            <g id="分组-8"></g>
        </g>
    </g>
</svg>