<?xml version="1.0" encoding="UTF-8"?>
<svg width="16px" height="16px" class="icon" viewBox="0 0 16 16" version="1.1" xmlns="http://www.w3.org/2000/svg" xmlns:xlink="http://www.w3.org/1999/xlink">
    <title>辖区人口盘查</title>
    <desc>Created with Sketch.</desc>
    <g id="辖区人口盘查">
        <path d="M7.5,0 C11.6421356,-7.6089797e-16 15,3.35786438 15,7.5 C15,11.6421356 11.6421356,15 7.5,15 C3.35786438,15 5.07265313e-16,11.6421356 0,7.5 C-5.07265313e-16,3.35786438 3.35786438,7.6089797e-16 7.5,0 Z M7.49744521,1.50000059 C6.67493553,1.501087 6.00072355,2.17502123 6.00000015,2.99634462 C5.99963845,3.81984082 6.66589299,4.49160224 7.49165798,4.49993136 C8.31959319,4.50789834 9.00646472,3.82128937 8.99995409,2.99055045 C8.99380516,2.1645193 8.3224868,1.49927632 7.49744521,1.50000059 Z M9.05501833,9.74357697 C9.29073758,9.74357697 9.50590694,9.74736731 9.72107631,9.74303549 C9.99023948,9.73762073 10.0486656,9.6314913 9.96404846,9.28711214 C9.67796185,8.12239582 9.38502528,6.96201132 9.10337099,5.79567057 C9.05098894,5.57799695 8.96798353,5.49839988 8.79834626,5.50002431 C7.93404235,5.50868794 7.0693355,5.50868794 6.20462864,5.50056579 C6.03821488,5.49894136 5.94956833,5.56879185 5.8963804,5.78971433 C5.61472611,6.9555136 5.32219248,8.11698105 5.03610587,9.28061442 C4.95148871,9.62661801 5.00951191,9.73707925 5.27504863,9.74249402 C5.49626208,9.74736731 5.71747553,9.74357697 5.93546547,9.74357697 C5.95883592,9.88544386 5.97777405,9.98290966 5.99026516,10.0814584 C6.1119527,11.0723607 6.24049021,12.0616386 6.35049252,13.0547068 C6.38635408,13.3801343 6.48104472,13.5111716 6.73771679,13.4992591 C7.26073147,13.4738097 7.7853579,13.479766 8.30877551,13.4970932 C8.52072136,13.5046739 8.61178555,13.3893394 8.63837952,13.1240158 C8.66940581,12.8137497 8.7096997,12.5061909 8.74757596,12.1986322 C8.84871362,11.3869587 8.95065716,10.5758266 9.05501833,9.74357697 Z" id="合并形状"></path>
        <rect id="矩形" transform="translate(12.828427, 12.828427) rotate(45.000000) translate(-12.828427, -12.828427) " x="9.82842712" y="11.8284271" width="6" height="2" rx="1"></rect>
    </g>
</svg>