<?xml version="1.0" standalone="no"?><!DOCTYPE svg PUBLIC "-//W3C//DTD SVG 1.1//EN" "http://www.w3.org/Graphics/SVG/1.1/DTD/svg11.dtd"><svg t="1553844100332" class="icon" style="" viewBox="0 0 1059 1024" version="1.1" xmlns="http://www.w3.org/2000/svg" p-id="2713" xmlns:xlink="http://www.w3.org/1999/xlink" width="206.8359375" height="200"><defs><style type="text/css"></style></defs><path d="M512.60599 17.31401C239.539324 17.31401 17.92 238.933333 17.92 512s221.619324 494.68599 494.68599 494.68599 494.68599-221.619324 494.685991-494.68599S785.672657 17.31401 512.60599 17.31401z m0 942.871497C265.262995 960.185507 64.420483 759.342995 64.420483 512S265.262995 63.814493 512.60599 63.814493 960.791498 264.657005 960.791498 512 759.948986 960.185507 512.60599 960.185507z" p-id="2714"></path><path d="M512.60599 1024C230.14029 1024 0.60599 794.4657 0.60599 512S230.14029 0 512.60599 0 1024.60599 229.5343 1024.60599 512 795.071691 1024 512.60599 1024z m0-989.371981C249.433043 34.628019 35.23401 248.827053 35.23401 512s214.199034 477.371981 477.37198 477.371981 477.371981-214.199034 477.371981-477.371981S775.778937 34.628019 512.60599 34.628019z m0 942.871498c-256.742029 0-465.499517-208.757488-465.499517-465.499517C47.106473 255.257971 255.863961 46.500483 512.60599 46.500483c256.742029 0 465.499517 208.757488 465.499517 465.499517 0 256.742029-208.757488 465.499517-465.499517 465.499517z m0-896.371015C275.156715 81.128502 81.734493 274.550725 81.734493 512S275.156715 942.871498 512.60599 942.871498s430.871498-193.422222 430.871498-430.871498S750.055266 81.128502 512.60599 81.128502z" p-id="2715"></path><path d="M548.718068 630.229952H467.094879V601.043478c0-22.26087 3.957488-41.058937 11.872464-56.394203 7.914976-15.335266 21.766184-31.165217 40.564251-46.995169 21.766184-17.808696 36.606763-32.649275 43.532367-44.027053 7.42029-11.377778 10.883092-23.744928 10.883092-37.101449 0-15.335266-5.441546-27.207729-15.829952-36.606763-10.883092-8.904348-26.218357-13.851208-46.005797-13.851208-38.585507 0-74.697585 14.345894-108.336232 43.532367V315.114976C440.876522 294.338164 479.956715 284.444444 522.005024 284.444444c46.995169 0 84.096618 10.883092 109.82029 32.649276 26.218357 21.766184 39.080193 50.952657 39.080193 88.054106 0 23.744928-5.441546 45.511111-15.829951 65.298551-10.883092 19.78744-29.186473 40.564251-55.404831 61.835749-22.26087 17.31401-36.112077 31.165217-42.04831 41.058937-5.936232 9.89372-8.904348 21.766184-8.904347 36.112077v20.776812z m-40.564252 45.016425c15.829952 0 29.186473 4.94686 40.069566 15.335266 10.883092 9.89372 16.819324 22.26087 16.819323 36.606763 0 13.851208-5.441546 26.218357-16.819323 36.112077s-24.7343 15.335266-40.069566 15.335266c-15.829952 0-29.186473-4.94686-40.069565-15.335266-10.883092-10.388406-16.324638-22.26087-16.324637-36.112077 0-14.345894 5.441546-26.218357 16.324637-36.606763 10.883092-9.89372 24.239614-15.335266 40.069565-15.335266z" p-id="2716"></path></svg>