<?xml version="1.0" encoding="utf-8"?>
<svg version="1.1" xmlns="http://www.w3.org/2000/svg" xmlns:xlink="http://www.w3.org/1999/xlink" x="0px" y="0px"
	 viewBox="0 0 200 200" width="64px" height="64px" xml:space="preserve">
	<title>实有力量</title>
	<g id="实有力量">
		<path d="M168.1,46c-20-11.6-57.1-33.4-67.9-33.4c-10.8,0-47.8,21.9-68.2,33.5c-4.1,2.3-7.1,6.5-7,11.2c0.3,17.1,2.6,34,11.5,56.4
		c19.3,48.6,53.1,71.4,62.5,73.8c0.3,0.1,0.7,0.1,1,0.1c0.4,0,0.7,0,1.1-0.1c10.9-2.9,44.2-28.1,62.3-73.7
		c8.9-22.3,11.2-39.3,11.5-56.5C175.1,52.9,171.8,47.7,168.1,46L168.1,46z M151.6,109.7c-15.6,39.3-43.7,60.2-51.6,63.4
		c-8.2-3.1-35.5-22.6-51.7-63.4c-7.8-19.7-9.8-33.4-10.1-48.6c0-1.5,1-2.7,2-3.2c27.9-15.7,53.7-31.3,59.9-31.3
		c6.2,0,33.4,16.1,59.7,31.2c0.7,0.4,2,2.3,1.9,3.1C161.4,76.4,159.4,90.2,151.6,109.7z"/>
		<path d="M99.3,56.9C88,56.9,78.9,66,78.9,77.3c0,11.2,9.1,20.4,20.4,20.4c11.2,0,20.4-9.1,20.4-20.4C119.6,66,110.5,56.9,99.3,56.9z
			"/>
		<path d="M115,97.2c-4.3,3.4-9.7,5.6-15.7,5.6c-6,0-11.4-2.1-15.7-5.6c-8.2,5.2-14,14.5-14.8,25.1c2.9,0.4,8,0.8,15.3,0.8h30.2
			c7.3,0,12.5-0.4,15.4-0.8C129,111.6,123.2,102.4,115,97.2z"/>
	</g>
</svg>
