<?xml version="1.0" standalone="no"?><!DOCTYPE svg PUBLIC "-//W3C//DTD SVG 1.1//EN" "http://www.w3.org/Graphics/SVG/1.1/DTD/svg11.dtd"><svg t="1562904036183" class="icon" viewBox="0 0 1024 1024" version="1.1" xmlns="http://www.w3.org/2000/svg" p-id="17073" xmlns:xlink="http://www.w3.org/1999/xlink" width="200" height="200"><defs><style type="text/css"></style></defs><path d="M908 956l-320 0c-22.4 0-40-17.6-40-40l0-320c0-22.4 17.6-40 40-40l320 0c22.4 0 40 17.6 40 40l0 320C948 938.4 930.4 956 908 956zM877.6 444.8 780.8 347.2c-23.2 15.2-50.4 24.8-80.8 24.8-79.2 0-144-64.8-144-144s64.8-144 144-144 144 64.8 144 144c0 23.2-5.6 45.6-16 65.6l100.8 100.8c14.4 14.4 14.4 36.8 0 51.2C914.4 459.2 892 459.2 877.6 444.8zM700 156c-40 0-72 32-72 72s32 72 72 72 72-32 72-72S740 156 700 156zM428 956l-320 0c-22.4 0-40-17.6-40-40l0-320c0-22.4 17.6-40 40-40l320 0c22.4 0 40 17.6 40 40l0 320C468 938.4 450.4 956 428 956zM428 476l-320 0c-22.4 0-40-17.6-40-40l0-320c0-22.4 17.6-40 40-40l320 0c22.4 0 40 17.6 40 40l0 320C468 458.4 450.4 476 428 476z" p-id="17074"></path></svg>