<?xml version="1.0" encoding="UTF-8"?>
<svg width="16px" height="16px" class="icon" viewBox="0 0 16 16" version="1.1" xmlns="http://www.w3.org/2000/svg" xmlns:xlink="http://www.w3.org/1999/xlink">
    <title>一标五实</title>
    <desc>Created with Sketch.</desc>
    <g id="一标五实">
        <path d="M7.04983091,4.16073806 C7.30853833,4.3727637 7.63941035,4.5 8,4.5 C8.36058965,4.5 8.69146167,4.3727637 8.95016909,4.16073806 L11.5435118,6.13986597 C11.5150813,6.25523344 11.5,6.3758555 11.5,6.5 C11.5,6.98020997 11.725656,7.40771515 12.0767143,7.68226185 L11.0384998,10.5004845 C11.0257057,10.5001621 11.0128718,10.5 11,10.5 C10.4217172,10.5 9.91986513,10.827239 9.66952034,11.3066406 L6.33047966,11.3066406 C6.08013487,10.827239 5.57828282,10.5 5,10.5 C4.98712821,10.5 4.97429429,10.5001621 4.96150017,10.5004845 L3.92328575,7.68226185 C4.27434401,7.40771515 4.5,6.98020997 4.5,6.5 C4.5,6.3758555 4.48491868,6.25523344 4.45648819,6.13986597 L7.04983091,4.16073806 Z M6.52991906,3.29957418 L3.90443288,5.30323261 C3.65297962,5.11290458 3.33967495,5 3,5 C2.17157288,5 1.5,5.67157288 1.5,6.5 C1.5,7.31993105 2.15786866,7.98620865 2.97456184,7.99978865 L4.02748538,10.857939 C3.70470133,11.1330697 3.5,11.5426296 3.5,12 C3.5,12.8284271 4.17157288,13.5 5,13.5 C5.72333935,13.5 6.32709503,12.9880015 6.46863087,12.3066406 L9.53136913,12.3066406 C9.67290497,12.9880015 10.2766607,13.5 11,13.5 C11.8284271,13.5 12.5,12.8284271 12.5,12 C12.5,11.5426296 12.2952987,11.1330697 11.9725146,10.857939 L13.0254382,7.99978865 C13.8421313,7.98620865 14.5,7.31993105 14.5,6.5 C14.5,5.67157288 13.8284271,5 13,5 C12.6603251,5 12.3470204,5.11290458 12.0955671,5.30323261 L9.47008094,3.29957418 C9.48970115,3.20277321 9.5,3.10258932 9.5,3 C9.5,2.17157288 8.82842712,1.5 8,1.5 C7.17157288,1.5 6.5,2.17157288 6.5,3 C6.5,3.10258932 6.51029885,3.20277321 6.52991906,3.29957418 Z M8,16 C3.581722,16 0,12.418278 0,8 C0,3.581722 3.581722,0 8,0 C12.418278,0 16,3.581722 16,8 C16,12.418278 12.418278,16 8,16 Z M8,10 C9.1045695,10 10,9.1045695 10,8 C10,6.8954305 9.1045695,6 8,6 C6.8954305,6 6,6.8954305 6,8 C6,9.1045695 6.8954305,10 8,10 Z" id="合并形状"></path>
    </g>
</svg>