<?xml version="1.0" standalone="no"?><!DOCTYPE svg PUBLIC "-//W3C//DTD SVG 1.1//EN" "http://www.w3.org/Graphics/SVG/1.1/DTD/svg11.dtd"><svg t="1557914140425" class="icon" style="" viewBox="0 0 1024 1024" version="1.1" xmlns="http://www.w3.org/2000/svg" p-id="2755" xmlns:xlink="http://www.w3.org/1999/xlink" width="64" height="64"><defs><style type="text/css"></style></defs><path d="M829.953445 757.606208l180.915835 180.915835a42.363776 42.363776 0 1 1-59.895967 59.895967l-179.756118-179.6879a465.933316 465.933316 0 1 1 58.73625-61.055683z m-82.3399-33.904665a379.841392 379.841392 0 0 0 99.599216-256.979619 379.159205 379.159205 0 0 0-77.087064-229.89682A383.798073 383.798073 0 0 0 674.687818 147.595122a381.273983 381.273983 0 1 0 60.373497 589.136182 42.568432 42.568432 0 0 1 12.55223-13.097979z m-431.823996-305.005542h296.546432a42.363776 42.363776 0 1 1 0 84.727551H315.789549a42.363776 42.363776 0 0 1 0-84.727551z" fill="#ffffff" p-id="2756"></path></svg>