<?xml version="1.0" standalone="no"?><!DOCTYPE svg PUBLIC "-//W3C//DTD SVG 1.1//EN" "http://www.w3.org/Graphics/SVG/1.1/DTD/svg11.dtd"><svg t="1557914081823" class="icon" style="" viewBox="0 0 1024 1024" version="1.1" xmlns="http://www.w3.org/2000/svg" p-id="1983" xmlns:xlink="http://www.w3.org/1999/xlink" width="64" height="64"><defs><style type="text/css"></style></defs><path d="M1016.32 963.299556L821.418667 768a464.952889 464.952889 0 0 0 110.193777-301.283556 465.92 465.92 0 0 0-136.476444-329.955555A464.384 464.384 0 0 0 465.749333 0a464.384 464.384 0 0 0-329.386666 136.704A465.464889 465.464889 0 0 0 0.056889 466.716444a465.464889 465.464889 0 0 0 136.419555 329.955556 464.384 464.384 0 0 0 632.206223 24.462222l194.787555 195.128889c10.24 10.296889 26.965333 10.296889 37.262222 0l15.644445-15.644444a26.453333 26.453333 0 0 0 0-37.319111z m-550.513778-104.675556a388.437333 388.437333 0 0 1-276.48-114.688 389.518222 389.518222 0 0 1-114.517333-277.048889c0-104.675556 40.732444-203.093333 114.517333-277.048889a387.982222 387.982222 0 0 1 276.48-114.744889c104.448 0 202.581333 40.789333 276.48 114.688a389.518222 389.518222 0 0 1 114.460445 277.048889c0 104.675556-40.732444 203.093333-114.460445 277.048889a388.437333 388.437333 0 0 1-276.48 114.744889z" fill="#ffffff" p-id="1984"></path><path d="M627.598222 425.984h-126.862222V299.008a22.698667 22.698667 0 0 0-22.641778-22.698667h-29.468444a22.698667 22.698667 0 0 0-22.641778 22.698667v126.862222H299.008a22.698667 22.698667 0 0 0-22.698667 22.641778v29.468444c0 12.515556 10.183111 22.641778 22.698667 22.641778h126.862222v126.862222c0 12.515556 10.126222 22.698667 22.641778 22.698667h29.468444c12.515556 0 22.641778-10.24 22.641778-22.698667V500.736h126.862222c12.515556 0 22.698667-10.183111 22.698667-22.641778v-29.468444a22.528 22.528 0 0 0-22.584889-22.641778z" fill="#ffffff" p-id="1985"></path></svg>